<svg width="480" height="200" viewBox="0 0 480 200" fill="none" xmlns="http://www.w3.org/2000/svg">
<g clip-path="url(#clip0_320_2242)">
<rect width="480" height="200" fill="url(#paint0_linear_320_2242)"/>
<ellipse cx="156.561" cy="227.469" rx="290.95" ry="101" transform="rotate(5.71471 156.561 227.469)" fill="url(#paint1_radial_320_2242)" fill-opacity="0.5"/>
<g opacity="0.5" filter="url(#filter0_f_320_2242)">
<ellipse cx="171.03" cy="215.069" rx="87" ry="79.8368" transform="rotate(-19.9912 171.03 215.069)" fill="#B56AF6"/>
</g>
<ellipse cx="410.116" cy="230.673" rx="228.551" ry="137.599" transform="rotate(5.71471 410.116 230.673)" fill="url(#paint2_radial_320_2242)" fill-opacity="0.4"/>
<ellipse cx="407.017" cy="39.4467" rx="228.551" ry="139.677" transform="rotate(24.7173 407.017 39.4467)" fill="url(#paint3_radial_320_2242)" fill-opacity="0.1"/>
<g opacity="0.3" filter="url(#filter1_f_320_2242)">
<ellipse cx="64.5" cy="47.5" rx="130.5" ry="89.5" fill="#FFB92C"/>
</g>
<rect x="32" y="20" width="80" height="24" rx="6.54406" fill="white" fill-opacity="0.15"/>
<path d="M46.3477 27.8906V35H45.127V28.8672H41.9678V35H40.7471V27.8906H46.3477ZM47.4805 32.417V32.3047C47.4805 31.9238 47.5358 31.5706 47.6465 31.2451C47.7572 30.9163 47.9167 30.6315 48.125 30.3906C48.3366 30.1465 48.5938 29.9577 48.8965 29.8242C49.2025 29.6875 49.5475 29.6191 49.9316 29.6191C50.319 29.6191 50.6641 29.6875 50.9668 29.8242C51.2728 29.9577 51.5316 30.1465 51.7432 30.3906C51.9548 30.6315 52.1159 30.9163 52.2266 31.2451C52.3372 31.5706 52.3926 31.9238 52.3926 32.3047V32.417C52.3926 32.7979 52.3372 33.151 52.2266 33.4766C52.1159 33.8021 51.9548 34.0869 51.7432 34.3311C51.5316 34.5719 51.2744 34.7607 50.9717 34.8975C50.6689 35.0309 50.3255 35.0977 49.9414 35.0977C49.554 35.0977 49.2074 35.0309 48.9014 34.8975C48.5986 34.7607 48.3415 34.5719 48.1299 34.3311C47.9183 34.0869 47.7572 33.8021 47.6465 33.4766C47.5358 33.151 47.4805 32.7979 47.4805 32.417ZM48.6572 32.3047V32.417C48.6572 32.6546 48.6816 32.8792 48.7305 33.0908C48.7793 33.3024 48.8558 33.488 48.96 33.6475C49.0641 33.807 49.1976 33.9323 49.3604 34.0234C49.5231 34.1146 49.7168 34.1602 49.9414 34.1602C50.1595 34.1602 50.3483 34.1146 50.5078 34.0234C50.6706 33.9323 50.804 33.807 50.9082 33.6475C51.0124 33.488 51.0889 33.3024 51.1377 33.0908C51.1898 32.8792 51.2158 32.6546 51.2158 32.417V32.3047C51.2158 32.0703 51.1898 31.849 51.1377 31.6406C51.0889 31.429 51.0107 31.2419 50.9033 31.0791C50.7992 30.9163 50.6657 30.7894 50.5029 30.6982C50.3434 30.6038 50.153 30.5566 49.9316 30.5566C49.7103 30.5566 49.5182 30.6038 49.3555 30.6982C49.196 30.7894 49.0641 30.9163 48.96 31.0791C48.8558 31.2419 48.7793 31.429 48.7305 31.6406C48.6816 31.849 48.6572 32.0703 48.6572 32.3047ZM55.5371 34.1602C55.7292 34.1602 55.9017 34.1227 56.0547 34.0479C56.2109 33.9697 56.3363 33.8623 56.4307 33.7256C56.5283 33.5889 56.582 33.431 56.5918 33.252H57.7002C57.6937 33.5938 57.5928 33.9046 57.3975 34.1846C57.2021 34.4645 56.9434 34.6875 56.6211 34.8535C56.2988 35.0163 55.9424 35.0977 55.5518 35.0977C55.1481 35.0977 54.7965 35.0293 54.4971 34.8926C54.1976 34.7526 53.9486 34.5605 53.75 34.3164C53.5514 34.0723 53.4017 33.7907 53.3008 33.4717C53.2031 33.1527 53.1543 32.8109 53.1543 32.4463V32.2754C53.1543 31.9108 53.2031 31.569 53.3008 31.25C53.4017 30.9277 53.5514 30.6445 53.75 30.4004C53.9486 30.1562 54.1976 29.9658 54.4971 29.8291C54.7965 29.6891 55.1465 29.6191 55.5469 29.6191C55.9701 29.6191 56.3411 29.7038 56.6602 29.873C56.9792 30.0391 57.2298 30.2718 57.4121 30.5713C57.5977 30.8675 57.6937 31.2126 57.7002 31.6064H56.5918C56.582 31.4111 56.5332 31.2354 56.4453 31.0791C56.3607 30.9196 56.2402 30.7926 56.084 30.6982C55.931 30.6038 55.7471 30.5566 55.5322 30.5566C55.2946 30.5566 55.0977 30.6055 54.9414 30.7031C54.7852 30.7975 54.6631 30.9277 54.5752 31.0938C54.4873 31.2565 54.4238 31.4404 54.3848 31.6455C54.349 31.8473 54.3311 32.0573 54.3311 32.2754V32.4463C54.3311 32.6644 54.349 32.876 54.3848 33.0811C54.4206 33.2861 54.4824 33.4701 54.5703 33.6328C54.6615 33.7923 54.7852 33.9209 54.9414 34.0186C55.0977 34.113 55.2962 34.1602 55.5371 34.1602ZM60.9326 35.0977C60.542 35.0977 60.1888 35.0342 59.873 34.9072C59.5605 34.777 59.2936 34.5964 59.0723 34.3652C58.8542 34.1341 58.6865 33.8623 58.5693 33.5498C58.4521 33.2373 58.3936 32.9004 58.3936 32.5391V32.3438C58.3936 31.9303 58.4538 31.556 58.5742 31.2207C58.6947 30.8854 58.8623 30.599 59.0771 30.3613C59.292 30.1204 59.5459 29.9365 59.8389 29.8096C60.1318 29.6826 60.4492 29.6191 60.791 29.6191C61.1686 29.6191 61.499 29.6826 61.7822 29.8096C62.0654 29.9365 62.2998 30.1156 62.4854 30.3467C62.6742 30.5745 62.8141 30.8464 62.9053 31.1621C62.9997 31.4779 63.0469 31.8262 63.0469 32.207V32.71H58.9648V31.8652H61.8848V31.7725C61.8783 31.5609 61.8359 31.3623 61.7578 31.1768C61.6829 30.9912 61.5674 30.8415 61.4111 30.7275C61.2549 30.6136 61.0465 30.5566 60.7861 30.5566C60.5908 30.5566 60.4167 30.599 60.2637 30.6836C60.1139 30.765 59.9886 30.8838 59.8877 31.04C59.7868 31.1963 59.7087 31.3851 59.6533 31.6064C59.6012 31.8245 59.5752 32.0703 59.5752 32.3438V32.5391C59.5752 32.7702 59.6061 32.985 59.668 33.1836C59.7331 33.3789 59.8275 33.5498 59.9512 33.6963C60.0749 33.8428 60.2246 33.9583 60.4004 34.043C60.5762 34.1243 60.7764 34.165 61.001 34.165C61.2842 34.165 61.5365 34.1081 61.7578 33.9941C61.9792 33.8802 62.1712 33.7191 62.334 33.5107L62.9541 34.1113C62.8402 34.2773 62.6921 34.4368 62.5098 34.5898C62.3275 34.7396 62.1045 34.8617 61.8408 34.9561C61.5804 35.0505 61.2777 35.0977 60.9326 35.0977ZM66.3574 29.7168V35H65.1758V29.7168H66.3574ZM68.0908 29.7168V30.6445H63.4717V29.7168H68.0908ZM70.0928 33.2812L72.168 29.7168H73.3447V35H72.168V31.4307L70.0928 35H68.916V29.7168H70.0928V33.2812ZM77.041 29.7168V35H75.8594V29.7168H77.041ZM78.7744 29.7168V30.6445H74.1553V29.7168H78.7744ZM81.5283 35.0977C81.1377 35.0977 80.7845 35.0342 80.4688 34.9072C80.1562 34.777 79.8893 34.5964 79.668 34.3652C79.4499 34.1341 79.2822 33.8623 79.165 33.5498C79.0479 33.2373 78.9893 32.9004 78.9893 32.5391V32.3438C78.9893 31.9303 79.0495 31.556 79.1699 31.2207C79.2904 30.8854 79.458 30.599 79.6729 30.3613C79.8877 30.1204 80.1416 29.9365 80.4346 29.8096C80.7275 29.6826 81.0449 29.6191 81.3867 29.6191C81.7643 29.6191 82.0947 29.6826 82.3779 29.8096C82.6611 29.9365 82.8955 30.1156 83.0811 30.3467C83.2699 30.5745 83.4098 30.8464 83.501 31.1621C83.5954 31.4779 83.6426 31.8262 83.6426 32.207V32.71H79.5605V31.8652H82.4805V31.7725C82.474 31.5609 82.4316 31.3623 82.3535 31.1768C82.2786 30.9912 82.1631 30.8415 82.0068 30.7275C81.8506 30.6136 81.6423 30.5566 81.3818 30.5566C81.1865 30.5566 81.0124 30.599 80.8594 30.6836C80.7096 30.765 80.5843 30.8838 80.4834 31.04C80.3825 31.1963 80.3044 31.3851 80.249 31.6064C80.1969 31.8245 80.1709 32.0703 80.1709 32.3438V32.5391C80.1709 32.7702 80.2018 32.985 80.2637 33.1836C80.3288 33.3789 80.4232 33.5498 80.5469 33.6963C80.6706 33.8428 80.8203 33.9583 80.9961 34.043C81.1719 34.1243 81.3721 34.165 81.5967 34.165C81.8799 34.165 82.1322 34.1081 82.3535 33.9941C82.5749 33.8802 82.7669 33.7191 82.9297 33.5107L83.5498 34.1113C83.4359 34.2773 83.2878 34.4368 83.1055 34.5898C82.9232 34.7396 82.7002 34.8617 82.4365 34.9561C82.1761 35.0505 81.8734 35.0977 81.5283 35.0977ZM88.1104 29.7168V30.6543H85.5322V29.7168H88.1104ZM89.0332 29.7168V35H87.8564V29.7168H89.0332ZM85.2441 29.7168H86.4062L86.2646 32.3291C86.2451 32.7165 86.2061 33.0583 86.1475 33.3545C86.0921 33.6475 86.0173 33.8997 85.9229 34.1113C85.8285 34.3197 85.7129 34.4889 85.5762 34.6191C85.4395 34.7493 85.2799 34.8454 85.0977 34.9072C84.9154 34.9691 84.7103 35 84.4824 35H84.1162L84.1113 34.0332L84.2969 34.0186C84.4173 34.0088 84.5215 33.9779 84.6094 33.9258C84.6973 33.8704 84.7721 33.7923 84.834 33.6914C84.8991 33.5905 84.9512 33.4603 84.9902 33.3008C85.0326 33.1413 85.0651 32.9525 85.0879 32.7344C85.1139 32.5163 85.1335 32.2624 85.1465 31.9727L85.2441 29.7168ZM91.1572 31.3965H92.7148C93.1706 31.3965 93.5579 31.473 93.877 31.626C94.196 31.779 94.4385 31.9922 94.6045 32.2656C94.7738 32.5358 94.8584 32.8451 94.8584 33.1934C94.8584 33.4505 94.8112 33.6898 94.7168 33.9111C94.6224 34.1292 94.4824 34.3197 94.2969 34.4824C94.1146 34.6452 93.89 34.7721 93.623 34.8633C93.3594 34.9544 93.0566 35 92.7148 35H90.376V29.7168H91.5576V34.0674H92.7148C92.9492 34.0674 93.1364 34.0267 93.2764 33.9453C93.4163 33.8639 93.5173 33.7581 93.5791 33.6279C93.6442 33.4977 93.6768 33.3594 93.6768 33.2129C93.6768 33.0632 93.6442 32.9215 93.5791 32.7881C93.5173 32.6546 93.4163 32.5456 93.2764 32.4609C93.1364 32.3763 92.9492 32.334 92.7148 32.334H91.1572V31.3965ZM101.436 27.8662V35H100.259V29.2627L98.5156 29.8535V28.8818L101.294 27.8662H101.436Z" fill="white"/>
<rect x="32" y="54" width="80" height="24" rx="6.54406" fill="white" fill-opacity="0.15"/>
<path d="M46.3477 61.8906V69H45.127V62.8672H41.9678V69H40.7471V61.8906H46.3477ZM47.4805 66.417V66.3047C47.4805 65.9238 47.5358 65.5706 47.6465 65.2451C47.7572 64.9163 47.9167 64.6315 48.125 64.3906C48.3366 64.1465 48.5938 63.9577 48.8965 63.8242C49.2025 63.6875 49.5475 63.6191 49.9316 63.6191C50.319 63.6191 50.6641 63.6875 50.9668 63.8242C51.2728 63.9577 51.5316 64.1465 51.7432 64.3906C51.9548 64.6315 52.1159 64.9163 52.2266 65.2451C52.3372 65.5706 52.3926 65.9238 52.3926 66.3047V66.417C52.3926 66.7979 52.3372 67.151 52.2266 67.4766C52.1159 67.8021 51.9548 68.0869 51.7432 68.3311C51.5316 68.5719 51.2744 68.7607 50.9717 68.8975C50.6689 69.0309 50.3255 69.0977 49.9414 69.0977C49.554 69.0977 49.2074 69.0309 48.9014 68.8975C48.5986 68.7607 48.3415 68.5719 48.1299 68.3311C47.9183 68.0869 47.7572 67.8021 47.6465 67.4766C47.5358 67.151 47.4805 66.7979 47.4805 66.417ZM48.6572 66.3047V66.417C48.6572 66.6546 48.6816 66.8792 48.7305 67.0908C48.7793 67.3024 48.8558 67.488 48.96 67.6475C49.0641 67.807 49.1976 67.9323 49.3604 68.0234C49.5231 68.1146 49.7168 68.1602 49.9414 68.1602C50.1595 68.1602 50.3483 68.1146 50.5078 68.0234C50.6706 67.9323 50.804 67.807 50.9082 67.6475C51.0124 67.488 51.0889 67.3024 51.1377 67.0908C51.1898 66.8792 51.2158 66.6546 51.2158 66.417V66.3047C51.2158 66.0703 51.1898 65.849 51.1377 65.6406C51.0889 65.429 51.0107 65.2419 50.9033 65.0791C50.7992 64.9163 50.6657 64.7894 50.5029 64.6982C50.3434 64.6038 50.153 64.5566 49.9316 64.5566C49.7103 64.5566 49.5182 64.6038 49.3555 64.6982C49.196 64.7894 49.0641 64.9163 48.96 65.0791C48.8558 65.2419 48.7793 65.429 48.7305 65.6406C48.6816 65.849 48.6572 66.0703 48.6572 66.3047ZM55.5371 68.1602C55.7292 68.1602 55.9017 68.1227 56.0547 68.0479C56.2109 67.9697 56.3363 67.8623 56.4307 67.7256C56.5283 67.5889 56.582 67.431 56.5918 67.252H57.7002C57.6937 67.5938 57.5928 67.9046 57.3975 68.1846C57.2021 68.4645 56.9434 68.6875 56.6211 68.8535C56.2988 69.0163 55.9424 69.0977 55.5518 69.0977C55.1481 69.0977 54.7965 69.0293 54.4971 68.8926C54.1976 68.7526 53.9486 68.5605 53.75 68.3164C53.5514 68.0723 53.4017 67.7907 53.3008 67.4717C53.2031 67.1527 53.1543 66.8109 53.1543 66.4463V66.2754C53.1543 65.9108 53.2031 65.569 53.3008 65.25C53.4017 64.9277 53.5514 64.6445 53.75 64.4004C53.9486 64.1562 54.1976 63.9658 54.4971 63.8291C54.7965 63.6891 55.1465 63.6191 55.5469 63.6191C55.9701 63.6191 56.3411 63.7038 56.6602 63.873C56.9792 64.0391 57.2298 64.2718 57.4121 64.5713C57.5977 64.8675 57.6937 65.2126 57.7002 65.6064H56.5918C56.582 65.4111 56.5332 65.2354 56.4453 65.0791C56.3607 64.9196 56.2402 64.7926 56.084 64.6982C55.931 64.6038 55.7471 64.5566 55.5322 64.5566C55.2946 64.5566 55.0977 64.6055 54.9414 64.7031C54.7852 64.7975 54.6631 64.9277 54.5752 65.0938C54.4873 65.2565 54.4238 65.4404 54.3848 65.6455C54.349 65.8473 54.3311 66.0573 54.3311 66.2754V66.4463C54.3311 66.6644 54.349 66.876 54.3848 67.0811C54.4206 67.2861 54.4824 67.4701 54.5703 67.6328C54.6615 67.7923 54.7852 67.9209 54.9414 68.0186C55.0977 68.113 55.2962 68.1602 55.5371 68.1602ZM60.9326 69.0977C60.542 69.0977 60.1888 69.0342 59.873 68.9072C59.5605 68.777 59.2936 68.5964 59.0723 68.3652C58.8542 68.1341 58.6865 67.8623 58.5693 67.5498C58.4521 67.2373 58.3936 66.9004 58.3936 66.5391V66.3438C58.3936 65.9303 58.4538 65.556 58.5742 65.2207C58.6947 64.8854 58.8623 64.599 59.0771 64.3613C59.292 64.1204 59.5459 63.9365 59.8389 63.8096C60.1318 63.6826 60.4492 63.6191 60.791 63.6191C61.1686 63.6191 61.499 63.6826 61.7822 63.8096C62.0654 63.9365 62.2998 64.1156 62.4854 64.3467C62.6742 64.5745 62.8141 64.8464 62.9053 65.1621C62.9997 65.4779 63.0469 65.8262 63.0469 66.207V66.71H58.9648V65.8652H61.8848V65.7725C61.8783 65.5609 61.8359 65.3623 61.7578 65.1768C61.6829 64.9912 61.5674 64.8415 61.4111 64.7275C61.2549 64.6136 61.0465 64.5566 60.7861 64.5566C60.5908 64.5566 60.4167 64.599 60.2637 64.6836C60.1139 64.765 59.9886 64.8838 59.8877 65.04C59.7868 65.1963 59.7087 65.3851 59.6533 65.6064C59.6012 65.8245 59.5752 66.0703 59.5752 66.3438V66.5391C59.5752 66.7702 59.6061 66.985 59.668 67.1836C59.7331 67.3789 59.8275 67.5498 59.9512 67.6963C60.0749 67.8428 60.2246 67.9583 60.4004 68.043C60.5762 68.1243 60.7764 68.165 61.001 68.165C61.2842 68.165 61.5365 68.1081 61.7578 67.9941C61.9792 67.8802 62.1712 67.7191 62.334 67.5107L62.9541 68.1113C62.8402 68.2773 62.6921 68.4368 62.5098 68.5898C62.3275 68.7396 62.1045 68.8617 61.8408 68.9561C61.5804 69.0505 61.2777 69.0977 60.9326 69.0977ZM66.3574 63.7168V69H65.1758V63.7168H66.3574ZM68.0908 63.7168V64.6445H63.4717V63.7168H68.0908ZM70.0928 67.2812L72.168 63.7168H73.3447V69H72.168V65.4307L70.0928 69H68.916V63.7168H70.0928V67.2812ZM77.041 63.7168V69H75.8594V63.7168H77.041ZM78.7744 63.7168V64.6445H74.1553V63.7168H78.7744ZM81.5283 69.0977C81.1377 69.0977 80.7845 69.0342 80.4688 68.9072C80.1562 68.777 79.8893 68.5964 79.668 68.3652C79.4499 68.1341 79.2822 67.8623 79.165 67.5498C79.0479 67.2373 78.9893 66.9004 78.9893 66.5391V66.3438C78.9893 65.9303 79.0495 65.556 79.1699 65.2207C79.2904 64.8854 79.458 64.599 79.6729 64.3613C79.8877 64.1204 80.1416 63.9365 80.4346 63.8096C80.7275 63.6826 81.0449 63.6191 81.3867 63.6191C81.7643 63.6191 82.0947 63.6826 82.3779 63.8096C82.6611 63.9365 82.8955 64.1156 83.0811 64.3467C83.2699 64.5745 83.4098 64.8464 83.501 65.1621C83.5954 65.4779 83.6426 65.8262 83.6426 66.207V66.71H79.5605V65.8652H82.4805V65.7725C82.474 65.5609 82.4316 65.3623 82.3535 65.1768C82.2786 64.9912 82.1631 64.8415 82.0068 64.7275C81.8506 64.6136 81.6423 64.5566 81.3818 64.5566C81.1865 64.5566 81.0124 64.599 80.8594 64.6836C80.7096 64.765 80.5843 64.8838 80.4834 65.04C80.3825 65.1963 80.3044 65.3851 80.249 65.6064C80.1969 65.8245 80.1709 66.0703 80.1709 66.3438V66.5391C80.1709 66.7702 80.2018 66.985 80.2637 67.1836C80.3288 67.3789 80.4232 67.5498 80.5469 67.6963C80.6706 67.8428 80.8203 67.9583 80.9961 68.043C81.1719 68.1243 81.3721 68.165 81.5967 68.165C81.8799 68.165 82.1322 68.1081 82.3535 67.9941C82.5749 67.8802 82.7669 67.7191 82.9297 67.5107L83.5498 68.1113C83.4359 68.2773 83.2878 68.4368 83.1055 68.5898C82.9232 68.7396 82.7002 68.8617 82.4365 68.9561C82.1761 69.0505 81.8734 69.0977 81.5283 69.0977ZM88.1104 63.7168V64.6543H85.5322V63.7168H88.1104ZM89.0332 63.7168V69H87.8564V63.7168H89.0332ZM85.2441 63.7168H86.4062L86.2646 66.3291C86.2451 66.7165 86.2061 67.0583 86.1475 67.3545C86.0921 67.6475 86.0173 67.8997 85.9229 68.1113C85.8285 68.3197 85.7129 68.4889 85.5762 68.6191C85.4395 68.7493 85.2799 68.8454 85.0977 68.9072C84.9154 68.9691 84.7103 69 84.4824 69H84.1162L84.1113 68.0332L84.2969 68.0186C84.4173 68.0088 84.5215 67.9779 84.6094 67.9258C84.6973 67.8704 84.7721 67.7923 84.834 67.6914C84.8991 67.5905 84.9512 67.4603 84.9902 67.3008C85.0326 67.1413 85.0651 66.9525 85.0879 66.7344C85.1139 66.5163 85.1335 66.2624 85.1465 65.9727L85.2441 63.7168ZM91.1572 65.3965H92.7148C93.1706 65.3965 93.5579 65.473 93.877 65.626C94.196 65.779 94.4385 65.9922 94.6045 66.2656C94.7738 66.5358 94.8584 66.8451 94.8584 67.1934C94.8584 67.4505 94.8112 67.6898 94.7168 67.9111C94.6224 68.1292 94.4824 68.3197 94.2969 68.4824C94.1146 68.6452 93.89 68.7721 93.623 68.8633C93.3594 68.9544 93.0566 69 92.7148 69H90.376V63.7168H91.5576V68.0674H92.7148C92.9492 68.0674 93.1364 68.0267 93.2764 67.9453C93.4163 67.8639 93.5173 67.7581 93.5791 67.6279C93.6442 67.4977 93.6768 67.3594 93.6768 67.2129C93.6768 67.0632 93.6442 66.9215 93.5791 66.7881C93.5173 66.6546 93.4163 66.5456 93.2764 66.4609C93.1364 66.3763 92.9492 66.334 92.7148 66.334H91.1572V65.3965ZM102.988 68.0625V69H98.2227V68.1943L100.537 65.6699C100.791 65.3835 100.991 65.1361 101.138 64.9277C101.284 64.7194 101.387 64.5322 101.445 64.3662C101.507 64.1969 101.538 64.0326 101.538 63.873C101.538 63.6484 101.496 63.4515 101.411 63.2822C101.33 63.1097 101.209 62.9746 101.05 62.877C100.89 62.776 100.697 62.7256 100.469 62.7256C100.205 62.7256 99.9837 62.7826 99.8047 62.8965C99.6257 63.0104 99.4906 63.1683 99.3994 63.3701C99.3083 63.5687 99.2627 63.7965 99.2627 64.0537H98.0859C98.0859 63.6403 98.1803 63.2627 98.3691 62.9209C98.5579 62.5758 98.8314 62.3024 99.1895 62.1006C99.5475 61.8955 99.9788 61.793 100.483 61.793C100.959 61.793 101.362 61.8727 101.694 62.0322C102.026 62.1917 102.279 62.418 102.451 62.7109C102.627 63.0039 102.715 63.3506 102.715 63.751C102.715 63.9723 102.679 64.1921 102.607 64.4102C102.536 64.6283 102.433 64.8464 102.3 65.0645C102.17 65.2793 102.015 65.4958 101.836 65.7139C101.657 65.9287 101.46 66.1468 101.245 66.3682L99.707 68.0625H102.988Z" fill="white"/>
<rect x="32" y="88" width="80" height="24" rx="6.54406" fill="white" fill-opacity="0.15"/>
<path d="M46.3477 95.8906V103H45.127V96.8672H41.9678V103H40.7471V95.8906H46.3477ZM47.4805 100.417V100.305C47.4805 99.9238 47.5358 99.5706 47.6465 99.2451C47.7572 98.9163 47.9167 98.6315 48.125 98.3906C48.3366 98.1465 48.5938 97.9577 48.8965 97.8242C49.2025 97.6875 49.5475 97.6191 49.9316 97.6191C50.319 97.6191 50.6641 97.6875 50.9668 97.8242C51.2728 97.9577 51.5316 98.1465 51.7432 98.3906C51.9548 98.6315 52.1159 98.9163 52.2266 99.2451C52.3372 99.5706 52.3926 99.9238 52.3926 100.305V100.417C52.3926 100.798 52.3372 101.151 52.2266 101.477C52.1159 101.802 51.9548 102.087 51.7432 102.331C51.5316 102.572 51.2744 102.761 50.9717 102.897C50.6689 103.031 50.3255 103.098 49.9414 103.098C49.554 103.098 49.2074 103.031 48.9014 102.897C48.5986 102.761 48.3415 102.572 48.1299 102.331C47.9183 102.087 47.7572 101.802 47.6465 101.477C47.5358 101.151 47.4805 100.798 47.4805 100.417ZM48.6572 100.305V100.417C48.6572 100.655 48.6816 100.879 48.7305 101.091C48.7793 101.302 48.8558 101.488 48.96 101.647C49.0641 101.807 49.1976 101.932 49.3604 102.023C49.5231 102.115 49.7168 102.16 49.9414 102.16C50.1595 102.16 50.3483 102.115 50.5078 102.023C50.6706 101.932 50.804 101.807 50.9082 101.647C51.0124 101.488 51.0889 101.302 51.1377 101.091C51.1898 100.879 51.2158 100.655 51.2158 100.417V100.305C51.2158 100.07 51.1898 99.849 51.1377 99.6406C51.0889 99.429 51.0107 99.2419 50.9033 99.0791C50.7992 98.9163 50.6657 98.7894 50.5029 98.6982C50.3434 98.6038 50.153 98.5566 49.9316 98.5566C49.7103 98.5566 49.5182 98.6038 49.3555 98.6982C49.196 98.7894 49.0641 98.9163 48.96 99.0791C48.8558 99.2419 48.7793 99.429 48.7305 99.6406C48.6816 99.849 48.6572 100.07 48.6572 100.305ZM55.5371 102.16C55.7292 102.16 55.9017 102.123 56.0547 102.048C56.2109 101.97 56.3363 101.862 56.4307 101.726C56.5283 101.589 56.582 101.431 56.5918 101.252H57.7002C57.6937 101.594 57.5928 101.905 57.3975 102.185C57.2021 102.465 56.9434 102.688 56.6211 102.854C56.2988 103.016 55.9424 103.098 55.5518 103.098C55.1481 103.098 54.7965 103.029 54.4971 102.893C54.1976 102.753 53.9486 102.561 53.75 102.316C53.5514 102.072 53.4017 101.791 53.3008 101.472C53.2031 101.153 53.1543 100.811 53.1543 100.446V100.275C53.1543 99.9108 53.2031 99.569 53.3008 99.25C53.4017 98.9277 53.5514 98.6445 53.75 98.4004C53.9486 98.1562 54.1976 97.9658 54.4971 97.8291C54.7965 97.6891 55.1465 97.6191 55.5469 97.6191C55.9701 97.6191 56.3411 97.7038 56.6602 97.873C56.9792 98.0391 57.2298 98.2718 57.4121 98.5713C57.5977 98.8675 57.6937 99.2126 57.7002 99.6064H56.5918C56.582 99.4111 56.5332 99.2354 56.4453 99.0791C56.3607 98.9196 56.2402 98.7926 56.084 98.6982C55.931 98.6038 55.7471 98.5566 55.5322 98.5566C55.2946 98.5566 55.0977 98.6055 54.9414 98.7031C54.7852 98.7975 54.6631 98.9277 54.5752 99.0938C54.4873 99.2565 54.4238 99.4404 54.3848 99.6455C54.349 99.8473 54.3311 100.057 54.3311 100.275V100.446C54.3311 100.664 54.349 100.876 54.3848 101.081C54.4206 101.286 54.4824 101.47 54.5703 101.633C54.6615 101.792 54.7852 101.921 54.9414 102.019C55.0977 102.113 55.2962 102.16 55.5371 102.16ZM60.9326 103.098C60.542 103.098 60.1888 103.034 59.873 102.907C59.5605 102.777 59.2936 102.596 59.0723 102.365C58.8542 102.134 58.6865 101.862 58.5693 101.55C58.4521 101.237 58.3936 100.9 58.3936 100.539V100.344C58.3936 99.9303 58.4538 99.556 58.5742 99.2207C58.6947 98.8854 58.8623 98.599 59.0771 98.3613C59.292 98.1204 59.5459 97.9365 59.8389 97.8096C60.1318 97.6826 60.4492 97.6191 60.791 97.6191C61.1686 97.6191 61.499 97.6826 61.7822 97.8096C62.0654 97.9365 62.2998 98.1156 62.4854 98.3467C62.6742 98.5745 62.8141 98.8464 62.9053 99.1621C62.9997 99.4779 63.0469 99.8262 63.0469 100.207V100.71H58.9648V99.8652H61.8848V99.7725C61.8783 99.5609 61.8359 99.3623 61.7578 99.1768C61.6829 98.9912 61.5674 98.8415 61.4111 98.7275C61.2549 98.6136 61.0465 98.5566 60.7861 98.5566C60.5908 98.5566 60.4167 98.599 60.2637 98.6836C60.1139 98.765 59.9886 98.8838 59.8877 99.04C59.7868 99.1963 59.7087 99.3851 59.6533 99.6064C59.6012 99.8245 59.5752 100.07 59.5752 100.344V100.539C59.5752 100.77 59.6061 100.985 59.668 101.184C59.7331 101.379 59.8275 101.55 59.9512 101.696C60.0749 101.843 60.2246 101.958 60.4004 102.043C60.5762 102.124 60.7764 102.165 61.001 102.165C61.2842 102.165 61.5365 102.108 61.7578 101.994C61.9792 101.88 62.1712 101.719 62.334 101.511L62.9541 102.111C62.8402 102.277 62.6921 102.437 62.5098 102.59C62.3275 102.74 62.1045 102.862 61.8408 102.956C61.5804 103.05 61.2777 103.098 60.9326 103.098ZM66.3574 97.7168V103H65.1758V97.7168H66.3574ZM68.0908 97.7168V98.6445H63.4717V97.7168H68.0908ZM70.0928 101.281L72.168 97.7168H73.3447V103H72.168V99.4307L70.0928 103H68.916V97.7168H70.0928V101.281ZM77.041 97.7168V103H75.8594V97.7168H77.041ZM78.7744 97.7168V98.6445H74.1553V97.7168H78.7744ZM81.5283 103.098C81.1377 103.098 80.7845 103.034 80.4688 102.907C80.1562 102.777 79.8893 102.596 79.668 102.365C79.4499 102.134 79.2822 101.862 79.165 101.55C79.0479 101.237 78.9893 100.9 78.9893 100.539V100.344C78.9893 99.9303 79.0495 99.556 79.1699 99.2207C79.2904 98.8854 79.458 98.599 79.6729 98.3613C79.8877 98.1204 80.1416 97.9365 80.4346 97.8096C80.7275 97.6826 81.0449 97.6191 81.3867 97.6191C81.7643 97.6191 82.0947 97.6826 82.3779 97.8096C82.6611 97.9365 82.8955 98.1156 83.0811 98.3467C83.2699 98.5745 83.4098 98.8464 83.501 99.1621C83.5954 99.4779 83.6426 99.8262 83.6426 100.207V100.71H79.5605V99.8652H82.4805V99.7725C82.474 99.5609 82.4316 99.3623 82.3535 99.1768C82.2786 98.9912 82.1631 98.8415 82.0068 98.7275C81.8506 98.6136 81.6423 98.5566 81.3818 98.5566C81.1865 98.5566 81.0124 98.599 80.8594 98.6836C80.7096 98.765 80.5843 98.8838 80.4834 99.04C80.3825 99.1963 80.3044 99.3851 80.249 99.6064C80.1969 99.8245 80.1709 100.07 80.1709 100.344V100.539C80.1709 100.77 80.2018 100.985 80.2637 101.184C80.3288 101.379 80.4232 101.55 80.5469 101.696C80.6706 101.843 80.8203 101.958 80.9961 102.043C81.1719 102.124 81.3721 102.165 81.5967 102.165C81.8799 102.165 82.1322 102.108 82.3535 101.994C82.5749 101.88 82.7669 101.719 82.9297 101.511L83.5498 102.111C83.4359 102.277 83.2878 102.437 83.1055 102.59C82.9232 102.74 82.7002 102.862 82.4365 102.956C82.1761 103.05 81.8734 103.098 81.5283 103.098ZM88.1104 97.7168V98.6543H85.5322V97.7168H88.1104ZM89.0332 97.7168V103H87.8564V97.7168H89.0332ZM85.2441 97.7168H86.4062L86.2646 100.329C86.2451 100.716 86.2061 101.058 86.1475 101.354C86.0921 101.647 86.0173 101.9 85.9229 102.111C85.8285 102.32 85.7129 102.489 85.5762 102.619C85.4395 102.749 85.2799 102.845 85.0977 102.907C84.9154 102.969 84.7103 103 84.4824 103H84.1162L84.1113 102.033L84.2969 102.019C84.4173 102.009 84.5215 101.978 84.6094 101.926C84.6973 101.87 84.7721 101.792 84.834 101.691C84.8991 101.59 84.9512 101.46 84.9902 101.301C85.0326 101.141 85.0651 100.952 85.0879 100.734C85.1139 100.516 85.1335 100.262 85.1465 99.9727L85.2441 97.7168ZM91.1572 99.3965H92.7148C93.1706 99.3965 93.5579 99.473 93.877 99.626C94.196 99.779 94.4385 99.9922 94.6045 100.266C94.7738 100.536 94.8584 100.845 94.8584 101.193C94.8584 101.451 94.8112 101.69 94.7168 101.911C94.6224 102.129 94.4824 102.32 94.2969 102.482C94.1146 102.645 93.89 102.772 93.623 102.863C93.3594 102.954 93.0566 103 92.7148 103H90.376V97.7168H91.5576V102.067H92.7148C92.9492 102.067 93.1364 102.027 93.2764 101.945C93.4163 101.864 93.5173 101.758 93.5791 101.628C93.6442 101.498 93.6768 101.359 93.6768 101.213C93.6768 101.063 93.6442 100.922 93.5791 100.788C93.5173 100.655 93.4163 100.546 93.2764 100.461C93.1364 100.376 92.9492 100.334 92.7148 100.334H91.1572V99.3965ZM99.6045 98.9131H100.308C100.581 98.9131 100.807 98.8659 100.986 98.7715C101.169 98.6771 101.304 98.5469 101.392 98.3809C101.479 98.2148 101.523 98.0244 101.523 97.8096C101.523 97.585 101.483 97.3929 101.401 97.2334C101.323 97.0706 101.203 96.9453 101.04 96.8574C100.881 96.7695 100.677 96.7256 100.43 96.7256C100.221 96.7256 100.033 96.7679 99.8633 96.8525C99.6973 96.9339 99.5654 97.0511 99.4678 97.2041C99.3701 97.3538 99.3213 97.5329 99.3213 97.7412H98.1396C98.1396 97.3636 98.2389 97.0283 98.4375 96.7354C98.6361 96.4424 98.9062 96.2129 99.248 96.0469C99.5931 95.8776 99.9805 95.793 100.41 95.793C100.869 95.793 101.27 95.8695 101.611 96.0225C101.956 96.1722 102.225 96.3968 102.417 96.6963C102.609 96.9958 102.705 97.3669 102.705 97.8096C102.705 98.0114 102.658 98.2165 102.563 98.4248C102.469 98.6331 102.329 98.8236 102.144 98.9961C101.958 99.1654 101.727 99.3037 101.45 99.4111C101.174 99.5153 100.853 99.5674 100.488 99.5674H99.6045V98.9131ZM99.6045 99.8311V99.1865H100.488C100.905 99.1865 101.26 99.2354 101.553 99.333C101.849 99.4307 102.09 99.5658 102.275 99.7383C102.461 99.9076 102.596 100.101 102.681 100.319C102.769 100.537 102.812 100.769 102.812 101.013C102.812 101.345 102.752 101.641 102.632 101.901C102.515 102.159 102.347 102.377 102.129 102.556C101.911 102.735 101.655 102.87 101.362 102.961C101.073 103.052 100.757 103.098 100.415 103.098C100.109 103.098 99.8161 103.055 99.5361 102.971C99.2562 102.886 99.0055 102.761 98.7842 102.595C98.5628 102.425 98.387 102.215 98.2568 101.965C98.1299 101.711 98.0664 101.418 98.0664 101.086H99.2432C99.2432 101.298 99.292 101.485 99.3896 101.647C99.4906 101.807 99.6305 101.932 99.8096 102.023C99.9919 102.115 100.2 102.16 100.435 102.16C100.682 102.16 100.895 102.116 101.074 102.028C101.253 101.94 101.39 101.81 101.484 101.638C101.582 101.465 101.631 101.257 101.631 101.013C101.631 100.736 101.577 100.511 101.47 100.339C101.362 100.166 101.209 100.039 101.011 99.958C100.812 99.8734 100.578 99.8311 100.308 99.8311H99.6045Z" fill="white"/>
<rect x="32" y="122" width="80" height="24" rx="6.54406" fill="white" fill-opacity="0.15"/>
<path d="M46.3477 129.891V137H45.127V130.867H41.9678V137H40.7471V129.891H46.3477ZM47.4805 134.417V134.305C47.4805 133.924 47.5358 133.571 47.6465 133.245C47.7572 132.916 47.9167 132.632 48.125 132.391C48.3366 132.146 48.5938 131.958 48.8965 131.824C49.2025 131.688 49.5475 131.619 49.9316 131.619C50.319 131.619 50.6641 131.688 50.9668 131.824C51.2728 131.958 51.5316 132.146 51.7432 132.391C51.9548 132.632 52.1159 132.916 52.2266 133.245C52.3372 133.571 52.3926 133.924 52.3926 134.305V134.417C52.3926 134.798 52.3372 135.151 52.2266 135.477C52.1159 135.802 51.9548 136.087 51.7432 136.331C51.5316 136.572 51.2744 136.761 50.9717 136.897C50.6689 137.031 50.3255 137.098 49.9414 137.098C49.554 137.098 49.2074 137.031 48.9014 136.897C48.5986 136.761 48.3415 136.572 48.1299 136.331C47.9183 136.087 47.7572 135.802 47.6465 135.477C47.5358 135.151 47.4805 134.798 47.4805 134.417ZM48.6572 134.305V134.417C48.6572 134.655 48.6816 134.879 48.7305 135.091C48.7793 135.302 48.8558 135.488 48.96 135.647C49.0641 135.807 49.1976 135.932 49.3604 136.023C49.5231 136.115 49.7168 136.16 49.9414 136.16C50.1595 136.16 50.3483 136.115 50.5078 136.023C50.6706 135.932 50.804 135.807 50.9082 135.647C51.0124 135.488 51.0889 135.302 51.1377 135.091C51.1898 134.879 51.2158 134.655 51.2158 134.417V134.305C51.2158 134.07 51.1898 133.849 51.1377 133.641C51.0889 133.429 51.0107 133.242 50.9033 133.079C50.7992 132.916 50.6657 132.789 50.5029 132.698C50.3434 132.604 50.153 132.557 49.9316 132.557C49.7103 132.557 49.5182 132.604 49.3555 132.698C49.196 132.789 49.0641 132.916 48.96 133.079C48.8558 133.242 48.7793 133.429 48.7305 133.641C48.6816 133.849 48.6572 134.07 48.6572 134.305ZM55.5371 136.16C55.7292 136.16 55.9017 136.123 56.0547 136.048C56.2109 135.97 56.3363 135.862 56.4307 135.726C56.5283 135.589 56.582 135.431 56.5918 135.252H57.7002C57.6937 135.594 57.5928 135.905 57.3975 136.185C57.2021 136.465 56.9434 136.688 56.6211 136.854C56.2988 137.016 55.9424 137.098 55.5518 137.098C55.1481 137.098 54.7965 137.029 54.4971 136.893C54.1976 136.753 53.9486 136.561 53.75 136.316C53.5514 136.072 53.4017 135.791 53.3008 135.472C53.2031 135.153 53.1543 134.811 53.1543 134.446V134.275C53.1543 133.911 53.2031 133.569 53.3008 133.25C53.4017 132.928 53.5514 132.645 53.75 132.4C53.9486 132.156 54.1976 131.966 54.4971 131.829C54.7965 131.689 55.1465 131.619 55.5469 131.619C55.9701 131.619 56.3411 131.704 56.6602 131.873C56.9792 132.039 57.2298 132.272 57.4121 132.571C57.5977 132.868 57.6937 133.213 57.7002 133.606H56.5918C56.582 133.411 56.5332 133.235 56.4453 133.079C56.3607 132.92 56.2402 132.793 56.084 132.698C55.931 132.604 55.7471 132.557 55.5322 132.557C55.2946 132.557 55.0977 132.605 54.9414 132.703C54.7852 132.798 54.6631 132.928 54.5752 133.094C54.4873 133.257 54.4238 133.44 54.3848 133.646C54.349 133.847 54.3311 134.057 54.3311 134.275V134.446C54.3311 134.664 54.349 134.876 54.3848 135.081C54.4206 135.286 54.4824 135.47 54.5703 135.633C54.6615 135.792 54.7852 135.921 54.9414 136.019C55.0977 136.113 55.2962 136.16 55.5371 136.16ZM60.9326 137.098C60.542 137.098 60.1888 137.034 59.873 136.907C59.5605 136.777 59.2936 136.596 59.0723 136.365C58.8542 136.134 58.6865 135.862 58.5693 135.55C58.4521 135.237 58.3936 134.9 58.3936 134.539V134.344C58.3936 133.93 58.4538 133.556 58.5742 133.221C58.6947 132.885 58.8623 132.599 59.0771 132.361C59.292 132.12 59.5459 131.937 59.8389 131.81C60.1318 131.683 60.4492 131.619 60.791 131.619C61.1686 131.619 61.499 131.683 61.7822 131.81C62.0654 131.937 62.2998 132.116 62.4854 132.347C62.6742 132.575 62.8141 132.846 62.9053 133.162C62.9997 133.478 63.0469 133.826 63.0469 134.207V134.71H58.9648V133.865H61.8848V133.772C61.8783 133.561 61.8359 133.362 61.7578 133.177C61.6829 132.991 61.5674 132.841 61.4111 132.728C61.2549 132.614 61.0465 132.557 60.7861 132.557C60.5908 132.557 60.4167 132.599 60.2637 132.684C60.1139 132.765 59.9886 132.884 59.8877 133.04C59.7868 133.196 59.7087 133.385 59.6533 133.606C59.6012 133.825 59.5752 134.07 59.5752 134.344V134.539C59.5752 134.77 59.6061 134.985 59.668 135.184C59.7331 135.379 59.8275 135.55 59.9512 135.696C60.0749 135.843 60.2246 135.958 60.4004 136.043C60.5762 136.124 60.7764 136.165 61.001 136.165C61.2842 136.165 61.5365 136.108 61.7578 135.994C61.9792 135.88 62.1712 135.719 62.334 135.511L62.9541 136.111C62.8402 136.277 62.6921 136.437 62.5098 136.59C62.3275 136.74 62.1045 136.862 61.8408 136.956C61.5804 137.05 61.2777 137.098 60.9326 137.098ZM66.3574 131.717V137H65.1758V131.717H66.3574ZM68.0908 131.717V132.645H63.4717V131.717H68.0908ZM70.0928 135.281L72.168 131.717H73.3447V137H72.168V133.431L70.0928 137H68.916V131.717H70.0928V135.281ZM77.041 131.717V137H75.8594V131.717H77.041ZM78.7744 131.717V132.645H74.1553V131.717H78.7744ZM81.5283 137.098C81.1377 137.098 80.7845 137.034 80.4688 136.907C80.1562 136.777 79.8893 136.596 79.668 136.365C79.4499 136.134 79.2822 135.862 79.165 135.55C79.0479 135.237 78.9893 134.9 78.9893 134.539V134.344C78.9893 133.93 79.0495 133.556 79.1699 133.221C79.2904 132.885 79.458 132.599 79.6729 132.361C79.8877 132.12 80.1416 131.937 80.4346 131.81C80.7275 131.683 81.0449 131.619 81.3867 131.619C81.7643 131.619 82.0947 131.683 82.3779 131.81C82.6611 131.937 82.8955 132.116 83.0811 132.347C83.2699 132.575 83.4098 132.846 83.501 133.162C83.5954 133.478 83.6426 133.826 83.6426 134.207V134.71H79.5605V133.865H82.4805V133.772C82.474 133.561 82.4316 133.362 82.3535 133.177C82.2786 132.991 82.1631 132.841 82.0068 132.728C81.8506 132.614 81.6423 132.557 81.3818 132.557C81.1865 132.557 81.0124 132.599 80.8594 132.684C80.7096 132.765 80.5843 132.884 80.4834 133.04C80.3825 133.196 80.3044 133.385 80.249 133.606C80.1969 133.825 80.1709 134.07 80.1709 134.344V134.539C80.1709 134.77 80.2018 134.985 80.2637 135.184C80.3288 135.379 80.4232 135.55 80.5469 135.696C80.6706 135.843 80.8203 135.958 80.9961 136.043C81.1719 136.124 81.3721 136.165 81.5967 136.165C81.8799 136.165 82.1322 136.108 82.3535 135.994C82.5749 135.88 82.7669 135.719 82.9297 135.511L83.5498 136.111C83.4359 136.277 83.2878 136.437 83.1055 136.59C82.9232 136.74 82.7002 136.862 82.4365 136.956C82.1761 137.05 81.8734 137.098 81.5283 137.098ZM88.1104 131.717V132.654H85.5322V131.717H88.1104ZM89.0332 131.717V137H87.8564V131.717H89.0332ZM85.2441 131.717H86.4062L86.2646 134.329C86.2451 134.716 86.2061 135.058 86.1475 135.354C86.0921 135.647 86.0173 135.9 85.9229 136.111C85.8285 136.32 85.7129 136.489 85.5762 136.619C85.4395 136.749 85.2799 136.845 85.0977 136.907C84.9154 136.969 84.7103 137 84.4824 137H84.1162L84.1113 136.033L84.2969 136.019C84.4173 136.009 84.5215 135.978 84.6094 135.926C84.6973 135.87 84.7721 135.792 84.834 135.691C84.8991 135.59 84.9512 135.46 84.9902 135.301C85.0326 135.141 85.0651 134.952 85.0879 134.734C85.1139 134.516 85.1335 134.262 85.1465 133.973L85.2441 131.717ZM91.1572 133.396H92.7148C93.1706 133.396 93.5579 133.473 93.877 133.626C94.196 133.779 94.4385 133.992 94.6045 134.266C94.7738 134.536 94.8584 134.845 94.8584 135.193C94.8584 135.451 94.8112 135.69 94.7168 135.911C94.6224 136.129 94.4824 136.32 94.2969 136.482C94.1146 136.645 93.89 136.772 93.623 136.863C93.3594 136.954 93.0566 137 92.7148 137H90.376V131.717H91.5576V136.067H92.7148C92.9492 136.067 93.1364 136.027 93.2764 135.945C93.4163 135.864 93.5173 135.758 93.5791 135.628C93.6442 135.498 93.6768 135.359 93.6768 135.213C93.6768 135.063 93.6442 134.922 93.5791 134.788C93.5173 134.655 93.4163 134.546 93.2764 134.461C93.1364 134.376 92.9492 134.334 92.7148 134.334H91.1572V133.396ZM103.12 134.466V135.403H97.9932L97.9541 134.695L101.021 129.891H101.963L100.942 131.639L99.1797 134.466H103.12ZM102.231 129.891V137H101.055V129.891H102.231Z" fill="white"/>
<rect x="32" y="156" width="80" height="24" rx="6.54406" fill="white" fill-opacity="0.15"/>
<path d="M46.3477 163.891V171H45.127V164.867H41.9678V171H40.7471V163.891H46.3477ZM47.4805 168.417V168.305C47.4805 167.924 47.5358 167.571 47.6465 167.245C47.7572 166.916 47.9167 166.632 48.125 166.391C48.3366 166.146 48.5938 165.958 48.8965 165.824C49.2025 165.688 49.5475 165.619 49.9316 165.619C50.319 165.619 50.6641 165.688 50.9668 165.824C51.2728 165.958 51.5316 166.146 51.7432 166.391C51.9548 166.632 52.1159 166.916 52.2266 167.245C52.3372 167.571 52.3926 167.924 52.3926 168.305V168.417C52.3926 168.798 52.3372 169.151 52.2266 169.477C52.1159 169.802 51.9548 170.087 51.7432 170.331C51.5316 170.572 51.2744 170.761 50.9717 170.897C50.6689 171.031 50.3255 171.098 49.9414 171.098C49.554 171.098 49.2074 171.031 48.9014 170.897C48.5986 170.761 48.3415 170.572 48.1299 170.331C47.9183 170.087 47.7572 169.802 47.6465 169.477C47.5358 169.151 47.4805 168.798 47.4805 168.417ZM48.6572 168.305V168.417C48.6572 168.655 48.6816 168.879 48.7305 169.091C48.7793 169.302 48.8558 169.488 48.96 169.647C49.0641 169.807 49.1976 169.932 49.3604 170.023C49.5231 170.115 49.7168 170.16 49.9414 170.16C50.1595 170.16 50.3483 170.115 50.5078 170.023C50.6706 169.932 50.804 169.807 50.9082 169.647C51.0124 169.488 51.0889 169.302 51.1377 169.091C51.1898 168.879 51.2158 168.655 51.2158 168.417V168.305C51.2158 168.07 51.1898 167.849 51.1377 167.641C51.0889 167.429 51.0107 167.242 50.9033 167.079C50.7992 166.916 50.6657 166.789 50.5029 166.698C50.3434 166.604 50.153 166.557 49.9316 166.557C49.7103 166.557 49.5182 166.604 49.3555 166.698C49.196 166.789 49.0641 166.916 48.96 167.079C48.8558 167.242 48.7793 167.429 48.7305 167.641C48.6816 167.849 48.6572 168.07 48.6572 168.305ZM55.5371 170.16C55.7292 170.16 55.9017 170.123 56.0547 170.048C56.2109 169.97 56.3363 169.862 56.4307 169.726C56.5283 169.589 56.582 169.431 56.5918 169.252H57.7002C57.6937 169.594 57.5928 169.905 57.3975 170.185C57.2021 170.465 56.9434 170.688 56.6211 170.854C56.2988 171.016 55.9424 171.098 55.5518 171.098C55.1481 171.098 54.7965 171.029 54.4971 170.893C54.1976 170.753 53.9486 170.561 53.75 170.316C53.5514 170.072 53.4017 169.791 53.3008 169.472C53.2031 169.153 53.1543 168.811 53.1543 168.446V168.275C53.1543 167.911 53.2031 167.569 53.3008 167.25C53.4017 166.928 53.5514 166.645 53.75 166.4C53.9486 166.156 54.1976 165.966 54.4971 165.829C54.7965 165.689 55.1465 165.619 55.5469 165.619C55.9701 165.619 56.3411 165.704 56.6602 165.873C56.9792 166.039 57.2298 166.272 57.4121 166.571C57.5977 166.868 57.6937 167.213 57.7002 167.606H56.5918C56.582 167.411 56.5332 167.235 56.4453 167.079C56.3607 166.92 56.2402 166.793 56.084 166.698C55.931 166.604 55.7471 166.557 55.5322 166.557C55.2946 166.557 55.0977 166.605 54.9414 166.703C54.7852 166.798 54.6631 166.928 54.5752 167.094C54.4873 167.257 54.4238 167.44 54.3848 167.646C54.349 167.847 54.3311 168.057 54.3311 168.275V168.446C54.3311 168.664 54.349 168.876 54.3848 169.081C54.4206 169.286 54.4824 169.47 54.5703 169.633C54.6615 169.792 54.7852 169.921 54.9414 170.019C55.0977 170.113 55.2962 170.16 55.5371 170.16ZM60.9326 171.098C60.542 171.098 60.1888 171.034 59.873 170.907C59.5605 170.777 59.2936 170.596 59.0723 170.365C58.8542 170.134 58.6865 169.862 58.5693 169.55C58.4521 169.237 58.3936 168.9 58.3936 168.539V168.344C58.3936 167.93 58.4538 167.556 58.5742 167.221C58.6947 166.885 58.8623 166.599 59.0771 166.361C59.292 166.12 59.5459 165.937 59.8389 165.81C60.1318 165.683 60.4492 165.619 60.791 165.619C61.1686 165.619 61.499 165.683 61.7822 165.81C62.0654 165.937 62.2998 166.116 62.4854 166.347C62.6742 166.575 62.8141 166.846 62.9053 167.162C62.9997 167.478 63.0469 167.826 63.0469 168.207V168.71H58.9648V167.865H61.8848V167.772C61.8783 167.561 61.8359 167.362 61.7578 167.177C61.6829 166.991 61.5674 166.841 61.4111 166.728C61.2549 166.614 61.0465 166.557 60.7861 166.557C60.5908 166.557 60.4167 166.599 60.2637 166.684C60.1139 166.765 59.9886 166.884 59.8877 167.04C59.7868 167.196 59.7087 167.385 59.6533 167.606C59.6012 167.825 59.5752 168.07 59.5752 168.344V168.539C59.5752 168.77 59.6061 168.985 59.668 169.184C59.7331 169.379 59.8275 169.55 59.9512 169.696C60.0749 169.843 60.2246 169.958 60.4004 170.043C60.5762 170.124 60.7764 170.165 61.001 170.165C61.2842 170.165 61.5365 170.108 61.7578 169.994C61.9792 169.88 62.1712 169.719 62.334 169.511L62.9541 170.111C62.8402 170.277 62.6921 170.437 62.5098 170.59C62.3275 170.74 62.1045 170.862 61.8408 170.956C61.5804 171.05 61.2777 171.098 60.9326 171.098ZM66.3574 165.717V171H65.1758V165.717H66.3574ZM68.0908 165.717V166.645H63.4717V165.717H68.0908ZM70.0928 169.281L72.168 165.717H73.3447V171H72.168V167.431L70.0928 171H68.916V165.717H70.0928V169.281ZM77.041 165.717V171H75.8594V165.717H77.041ZM78.7744 165.717V166.645H74.1553V165.717H78.7744ZM81.5283 171.098C81.1377 171.098 80.7845 171.034 80.4688 170.907C80.1562 170.777 79.8893 170.596 79.668 170.365C79.4499 170.134 79.2822 169.862 79.165 169.55C79.0479 169.237 78.9893 168.9 78.9893 168.539V168.344C78.9893 167.93 79.0495 167.556 79.1699 167.221C79.2904 166.885 79.458 166.599 79.6729 166.361C79.8877 166.12 80.1416 165.937 80.4346 165.81C80.7275 165.683 81.0449 165.619 81.3867 165.619C81.7643 165.619 82.0947 165.683 82.3779 165.81C82.6611 165.937 82.8955 166.116 83.0811 166.347C83.2699 166.575 83.4098 166.846 83.501 167.162C83.5954 167.478 83.6426 167.826 83.6426 168.207V168.71H79.5605V167.865H82.4805V167.772C82.474 167.561 82.4316 167.362 82.3535 167.177C82.2786 166.991 82.1631 166.841 82.0068 166.728C81.8506 166.614 81.6423 166.557 81.3818 166.557C81.1865 166.557 81.0124 166.599 80.8594 166.684C80.7096 166.765 80.5843 166.884 80.4834 167.04C80.3825 167.196 80.3044 167.385 80.249 167.606C80.1969 167.825 80.1709 168.07 80.1709 168.344V168.539C80.1709 168.77 80.2018 168.985 80.2637 169.184C80.3288 169.379 80.4232 169.55 80.5469 169.696C80.6706 169.843 80.8203 169.958 80.9961 170.043C81.1719 170.124 81.3721 170.165 81.5967 170.165C81.8799 170.165 82.1322 170.108 82.3535 169.994C82.5749 169.88 82.7669 169.719 82.9297 169.511L83.5498 170.111C83.4359 170.277 83.2878 170.437 83.1055 170.59C82.9232 170.74 82.7002 170.862 82.4365 170.956C82.1761 171.05 81.8734 171.098 81.5283 171.098ZM88.1104 165.717V166.654H85.5322V165.717H88.1104ZM89.0332 165.717V171H87.8564V165.717H89.0332ZM85.2441 165.717H86.4062L86.2646 168.329C86.2451 168.716 86.2061 169.058 86.1475 169.354C86.0921 169.647 86.0173 169.9 85.9229 170.111C85.8285 170.32 85.7129 170.489 85.5762 170.619C85.4395 170.749 85.2799 170.845 85.0977 170.907C84.9154 170.969 84.7103 171 84.4824 171H84.1162L84.1113 170.033L84.2969 170.019C84.4173 170.009 84.5215 169.978 84.6094 169.926C84.6973 169.87 84.7721 169.792 84.834 169.691C84.8991 169.59 84.9512 169.46 84.9902 169.301C85.0326 169.141 85.0651 168.952 85.0879 168.734C85.1139 168.516 85.1335 168.262 85.1465 167.973L85.2441 165.717ZM91.1572 167.396H92.7148C93.1706 167.396 93.5579 167.473 93.877 167.626C94.196 167.779 94.4385 167.992 94.6045 168.266C94.7738 168.536 94.8584 168.845 94.8584 169.193C94.8584 169.451 94.8112 169.69 94.7168 169.911C94.6224 170.129 94.4824 170.32 94.2969 170.482C94.1146 170.645 93.89 170.772 93.623 170.863C93.3594 170.954 93.0566 171 92.7148 171H90.376V165.717H91.5576V170.067H92.7148C92.9492 170.067 93.1364 170.027 93.2764 169.945C93.4163 169.864 93.5173 169.758 93.5791 169.628C93.6442 169.498 93.6768 169.359 93.6768 169.213C93.6768 169.063 93.6442 168.922 93.5791 168.788C93.5173 168.655 93.4163 168.546 93.2764 168.461C93.1364 168.376 92.9492 168.334 92.7148 168.334H91.1572V167.396ZM99.458 167.694L98.5205 167.465L98.9062 163.891H102.739V164.887H99.8828L99.6875 166.63C99.7982 166.565 99.9512 166.501 100.146 166.439C100.342 166.374 100.565 166.342 100.815 166.342C101.151 166.342 101.45 166.397 101.714 166.508C101.981 166.615 102.207 166.773 102.393 166.981C102.578 167.187 102.72 167.437 102.817 167.733C102.915 168.026 102.964 168.357 102.964 168.725C102.964 169.053 102.915 169.361 102.817 169.647C102.723 169.934 102.58 170.186 102.388 170.404C102.196 170.622 101.953 170.793 101.66 170.917C101.37 171.037 101.027 171.098 100.63 171.098C100.334 171.098 100.049 171.055 99.7754 170.971C99.5052 170.883 99.2627 170.754 99.0479 170.585C98.833 170.412 98.6605 170.201 98.5303 169.95C98.4001 169.696 98.3252 169.405 98.3057 169.076H99.458C99.4873 169.307 99.5508 169.504 99.6484 169.667C99.7493 169.826 99.8828 169.949 100.049 170.033C100.215 170.118 100.407 170.16 100.625 170.16C100.824 170.16 100.994 170.126 101.138 170.058C101.281 169.986 101.4 169.885 101.494 169.755C101.592 169.621 101.663 169.465 101.709 169.286C101.758 169.107 101.782 168.909 101.782 168.69C101.782 168.482 101.755 168.292 101.699 168.119C101.647 167.947 101.567 167.797 101.46 167.67C101.356 167.543 101.224 167.445 101.064 167.377C100.905 167.305 100.721 167.27 100.513 167.27C100.233 167.27 100.018 167.31 99.8682 167.392C99.7217 167.473 99.585 167.574 99.458 167.694Z" fill="white"/>
<rect x="172" y="20" width="108" height="24" rx="6.54406" fill="white" fill-opacity="0.15"/>
<path d="M185.195 31.1035V32.1631H180.322V31.1035H185.195ZM183.33 29.1113V34.2871H182.192V29.1113H183.33ZM190.815 27.8906V28.5352L187.974 35H186.733L189.57 28.8281H185.889V27.8906H190.815ZM194.36 32.1924V32.1094C194.36 31.4128 194.435 30.7812 194.585 30.2148C194.738 29.6452 194.937 29.1471 195.181 28.7207C195.425 28.291 195.685 27.9362 195.962 27.6562C196.242 27.373 196.51 27.1696 196.768 27.0459L197.002 27.7197C196.813 27.8597 196.624 28.0534 196.436 28.3008C196.25 28.5482 196.079 28.8525 195.923 29.2139C195.77 29.5719 195.646 29.9919 195.552 30.4736C195.461 30.9521 195.415 31.4941 195.415 32.0996V32.2021C195.415 32.8076 195.461 33.3512 195.552 33.833C195.646 34.3115 195.77 34.7314 195.923 35.0928C196.079 35.4541 196.25 35.7601 196.436 36.0107C196.624 36.2646 196.813 36.4665 197.002 36.6162L196.768 37.2607C196.51 37.1338 196.242 36.9287 195.962 36.6455C195.685 36.3656 195.425 36.0107 195.181 35.5811C194.937 35.1546 194.738 34.6582 194.585 34.0918C194.435 33.5221 194.36 32.889 194.36 32.1924ZM198.853 27.8906L200.361 30.4834L201.87 27.8906H203.281L201.133 31.4111L203.335 35H201.909L200.361 32.3584L198.813 35H197.383L199.59 31.4111L197.437 27.8906H198.853ZM205.171 27.8906L206.68 30.4834L208.188 27.8906H209.6L207.451 31.4111L209.653 35H208.228L206.68 32.3584L205.132 35H203.701L205.908 31.4111L203.755 27.8906H205.171ZM211.489 27.8906L212.998 30.4834L214.507 27.8906H215.918L213.77 31.4111L215.972 35H214.546L212.998 32.3584L211.45 35H210.02L212.227 31.4111L210.073 27.8906H211.489ZM219.028 32.1094V32.1924C219.028 32.8792 218.95 33.5059 218.794 34.0723C218.641 34.6387 218.441 35.1367 218.193 35.5664C217.949 35.9961 217.684 36.3542 217.397 36.6406C217.114 36.9271 216.842 37.1338 216.582 37.2607L216.343 36.6162C216.532 36.473 216.719 36.276 216.904 36.0254C217.093 35.778 217.264 35.4704 217.417 35.1025C217.573 34.738 217.697 34.3148 217.788 33.833C217.882 33.3512 217.93 32.8076 217.93 32.2021V32.0996C217.93 31.4941 217.881 30.9505 217.783 30.4688C217.689 29.9837 217.562 29.5605 217.402 29.1992C217.243 28.8346 217.07 28.527 216.885 28.2764C216.699 28.0257 216.519 27.8304 216.343 27.6904L216.582 27.0459C216.842 27.1696 217.114 27.3747 217.397 27.6611C217.684 27.9476 217.949 28.3073 218.193 28.7402C218.441 29.1699 218.641 29.668 218.794 30.2344C218.95 30.8008 219.028 31.4258 219.028 32.1094ZM223.794 27.8906L225.303 30.4834L226.812 27.8906H228.223L226.074 31.4111L228.276 35H226.851L225.303 32.3584L223.755 35H222.324L224.531 31.4111L222.378 27.8906H223.794ZM230.112 27.8906L231.621 30.4834L233.13 27.8906H234.541L232.393 31.4111L234.595 35H233.169L231.621 32.3584L230.073 35H228.643L230.85 31.4111L228.696 27.8906H230.112ZM236.431 27.8906L237.939 30.4834L239.448 27.8906H240.859L238.711 31.4111L240.913 35H239.487L237.939 32.3584L236.392 35H234.961L237.168 31.4111L235.015 27.8906H236.431ZM243.647 31.4941V32.4316H241.064V31.4941H243.647ZM245.728 27.8906L247.236 30.4834L248.745 27.8906H250.156L248.008 31.4111L250.21 35H248.784L247.236 32.3584L245.688 35H244.258L246.465 31.4111L244.312 27.8906H245.728ZM252.046 27.8906L253.555 30.4834L255.063 27.8906H256.475L254.326 31.4111L256.528 35H255.103L253.555 32.3584L252.007 35H250.576L252.783 31.4111L250.63 27.8906H252.046ZM259.263 31.4941V32.4316H256.68V31.4941H259.263ZM264.858 30.8496V32.0117C264.858 32.5684 264.803 33.0436 264.692 33.4375C264.585 33.8281 264.429 34.1455 264.224 34.3896C264.019 34.6338 263.773 34.8128 263.486 34.9268C263.203 35.0407 262.886 35.0977 262.534 35.0977C262.254 35.0977 261.994 35.0618 261.753 34.9902C261.515 34.9186 261.3 34.8063 261.108 34.6533C260.916 34.5003 260.752 34.3034 260.615 34.0625C260.482 33.8184 260.378 33.527 260.303 33.1885C260.231 32.8499 260.195 32.4577 260.195 32.0117V30.8496C260.195 30.2897 260.251 29.8177 260.361 29.4336C260.472 29.0462 260.63 28.7321 260.835 28.4912C261.04 28.2471 261.284 28.0697 261.567 27.959C261.854 27.8483 262.173 27.793 262.524 27.793C262.808 27.793 263.068 27.8288 263.306 27.9004C263.547 27.9688 263.761 28.0778 263.95 28.2275C264.142 28.3773 264.305 28.5726 264.438 28.8135C264.575 29.0511 264.679 29.3392 264.751 29.6777C264.823 30.013 264.858 30.4036 264.858 30.8496ZM263.682 32.1777V30.6738C263.682 30.3906 263.665 30.1416 263.633 29.9268C263.6 29.7087 263.551 29.5247 263.486 29.375C263.424 29.222 263.346 29.0983 263.252 29.0039C263.158 28.9062 263.05 28.8363 262.93 28.7939C262.809 28.7484 262.674 28.7256 262.524 28.7256C262.342 28.7256 262.179 28.7614 262.036 28.833C261.893 28.9014 261.772 29.012 261.675 29.165C261.577 29.318 261.502 29.5199 261.45 29.7705C261.401 30.0179 261.377 30.319 261.377 30.6738V32.1777C261.377 32.4642 261.393 32.7165 261.426 32.9346C261.458 33.1527 261.507 33.3398 261.572 33.4961C261.637 33.6491 261.715 33.776 261.807 33.877C261.901 33.9746 262.008 34.0462 262.129 34.0918C262.253 34.1374 262.388 34.1602 262.534 34.1602C262.72 34.1602 262.884 34.1243 263.027 34.0527C263.171 33.9811 263.291 33.8672 263.389 33.7109C263.486 33.5514 263.56 33.3447 263.608 33.0908C263.657 32.8369 263.682 32.5326 263.682 32.1777ZM269.121 27.8662V35H267.944V29.2627L266.201 29.8535V28.8818L268.979 27.8662H269.121Z" fill="white"/>
<rect x="172" y="54" width="108" height="24" rx="6.54406" fill="white" fill-opacity="0.15"/>
<path d="M185.195 65.1035V66.1631H180.322V65.1035H185.195ZM183.33 63.1113V68.2871H182.192V63.1113H183.33ZM190.815 61.8906V62.5352L187.974 69H186.733L189.57 62.8281H185.889V61.8906H190.815ZM194.36 66.1924V66.1094C194.36 65.4128 194.435 64.7812 194.585 64.2148C194.738 63.6452 194.937 63.1471 195.181 62.7207C195.425 62.291 195.685 61.9362 195.962 61.6562C196.242 61.373 196.51 61.1696 196.768 61.0459L197.002 61.7197C196.813 61.8597 196.624 62.0534 196.436 62.3008C196.25 62.5482 196.079 62.8525 195.923 63.2139C195.77 63.5719 195.646 63.9919 195.552 64.4736C195.461 64.9521 195.415 65.4941 195.415 66.0996V66.2021C195.415 66.8076 195.461 67.3512 195.552 67.833C195.646 68.3115 195.77 68.7314 195.923 69.0928C196.079 69.4541 196.25 69.7601 196.436 70.0107C196.624 70.2646 196.813 70.4665 197.002 70.6162L196.768 71.2607C196.51 71.1338 196.242 70.9287 195.962 70.6455C195.685 70.3656 195.425 70.0107 195.181 69.5811C194.937 69.1546 194.738 68.6582 194.585 68.0918C194.435 67.5221 194.36 66.889 194.36 66.1924ZM198.853 61.8906L200.361 64.4834L201.87 61.8906H203.281L201.133 65.4111L203.335 69H201.909L200.361 66.3584L198.813 69H197.383L199.59 65.4111L197.437 61.8906H198.853ZM205.171 61.8906L206.68 64.4834L208.188 61.8906H209.6L207.451 65.4111L209.653 69H208.228L206.68 66.3584L205.132 69H203.701L205.908 65.4111L203.755 61.8906H205.171ZM211.489 61.8906L212.998 64.4834L214.507 61.8906H215.918L213.77 65.4111L215.972 69H214.546L212.998 66.3584L211.45 69H210.02L212.227 65.4111L210.073 61.8906H211.489ZM219.028 66.1094V66.1924C219.028 66.8792 218.95 67.5059 218.794 68.0723C218.641 68.6387 218.441 69.1367 218.193 69.5664C217.949 69.9961 217.684 70.3542 217.397 70.6406C217.114 70.9271 216.842 71.1338 216.582 71.2607L216.343 70.6162C216.532 70.473 216.719 70.276 216.904 70.0254C217.093 69.778 217.264 69.4704 217.417 69.1025C217.573 68.738 217.697 68.3148 217.788 67.833C217.882 67.3512 217.93 66.8076 217.93 66.2021V66.0996C217.93 65.4941 217.881 64.9505 217.783 64.4688C217.689 63.9837 217.562 63.5605 217.402 63.1992C217.243 62.8346 217.07 62.527 216.885 62.2764C216.699 62.0257 216.519 61.8304 216.343 61.6904L216.582 61.0459C216.842 61.1696 217.114 61.3747 217.397 61.6611C217.684 61.9476 217.949 62.3073 218.193 62.7402C218.441 63.1699 218.641 63.668 218.794 64.2344C218.95 64.8008 219.028 65.4258 219.028 66.1094ZM223.794 61.8906L225.303 64.4834L226.812 61.8906H228.223L226.074 65.4111L228.276 69H226.851L225.303 66.3584L223.755 69H222.324L224.531 65.4111L222.378 61.8906H223.794ZM230.112 61.8906L231.621 64.4834L233.13 61.8906H234.541L232.393 65.4111L234.595 69H233.169L231.621 66.3584L230.073 69H228.643L230.85 65.4111L228.696 61.8906H230.112ZM236.431 61.8906L237.939 64.4834L239.448 61.8906H240.859L238.711 65.4111L240.913 69H239.487L237.939 66.3584L236.392 69H234.961L237.168 65.4111L235.015 61.8906H236.431ZM243.647 65.4941V66.4316H241.064V65.4941H243.647ZM245.728 61.8906L247.236 64.4834L248.745 61.8906H250.156L248.008 65.4111L250.21 69H248.784L247.236 66.3584L245.688 69H244.258L246.465 65.4111L244.312 61.8906H245.728ZM252.046 61.8906L253.555 64.4834L255.063 61.8906H256.475L254.326 65.4111L256.528 69H255.103L253.555 66.3584L252.007 69H250.576L252.783 65.4111L250.63 61.8906H252.046ZM259.263 65.4941V66.4316H256.68V65.4941H259.263ZM264.858 64.8496V66.0117C264.858 66.5684 264.803 67.0436 264.692 67.4375C264.585 67.8281 264.429 68.1455 264.224 68.3896C264.019 68.6338 263.773 68.8128 263.486 68.9268C263.203 69.0407 262.886 69.0977 262.534 69.0977C262.254 69.0977 261.994 69.0618 261.753 68.9902C261.515 68.9186 261.3 68.8063 261.108 68.6533C260.916 68.5003 260.752 68.3034 260.615 68.0625C260.482 67.8184 260.378 67.527 260.303 67.1885C260.231 66.8499 260.195 66.4577 260.195 66.0117V64.8496C260.195 64.2897 260.251 63.8177 260.361 63.4336C260.472 63.0462 260.63 62.7321 260.835 62.4912C261.04 62.2471 261.284 62.0697 261.567 61.959C261.854 61.8483 262.173 61.793 262.524 61.793C262.808 61.793 263.068 61.8288 263.306 61.9004C263.547 61.9688 263.761 62.0778 263.95 62.2275C264.142 62.3773 264.305 62.5726 264.438 62.8135C264.575 63.0511 264.679 63.3392 264.751 63.6777C264.823 64.013 264.858 64.4036 264.858 64.8496ZM263.682 66.1777V64.6738C263.682 64.3906 263.665 64.1416 263.633 63.9268C263.6 63.7087 263.551 63.5247 263.486 63.375C263.424 63.222 263.346 63.0983 263.252 63.0039C263.158 62.9062 263.05 62.8363 262.93 62.7939C262.809 62.7484 262.674 62.7256 262.524 62.7256C262.342 62.7256 262.179 62.7614 262.036 62.833C261.893 62.9014 261.772 63.012 261.675 63.165C261.577 63.318 261.502 63.5199 261.45 63.7705C261.401 64.0179 261.377 64.319 261.377 64.6738V66.1777C261.377 66.4642 261.393 66.7165 261.426 66.9346C261.458 67.1527 261.507 67.3398 261.572 67.4961C261.637 67.6491 261.715 67.776 261.807 67.877C261.901 67.9746 262.008 68.0462 262.129 68.0918C262.253 68.1374 262.388 68.1602 262.534 68.1602C262.72 68.1602 262.884 68.1243 263.027 68.0527C263.171 67.9811 263.291 67.8672 263.389 67.7109C263.486 67.5514 263.56 67.3447 263.608 67.0908C263.657 66.8369 263.682 66.5326 263.682 66.1777ZM270.674 68.0625V69H265.908V68.1943L268.223 65.6699C268.477 65.3835 268.677 65.1361 268.823 64.9277C268.97 64.7194 269.072 64.5322 269.131 64.3662C269.193 64.1969 269.224 64.0326 269.224 63.873C269.224 63.6484 269.181 63.4515 269.097 63.2822C269.015 63.1097 268.895 62.9746 268.735 62.877C268.576 62.776 268.382 62.7256 268.154 62.7256C267.891 62.7256 267.669 62.7826 267.49 62.8965C267.311 63.0104 267.176 63.1683 267.085 63.3701C266.994 63.5687 266.948 63.7965 266.948 64.0537H265.771C265.771 63.6403 265.866 63.2627 266.055 62.9209C266.243 62.5758 266.517 62.3024 266.875 62.1006C267.233 61.8955 267.664 61.793 268.169 61.793C268.644 61.793 269.048 61.8727 269.38 62.0322C269.712 62.1917 269.964 62.418 270.137 62.7109C270.312 63.0039 270.4 63.3506 270.4 63.751C270.4 63.9723 270.365 64.1921 270.293 64.4102C270.221 64.6283 270.119 64.8464 269.985 65.0645C269.855 65.2793 269.701 65.4958 269.521 65.7139C269.342 65.9287 269.146 66.1468 268.931 66.3682L267.393 68.0625H270.674Z" fill="white"/>
<rect x="172" y="88" width="108" height="24" rx="6.54406" fill="white" fill-opacity="0.15"/>
<path d="M185.195 99.1035V100.163H180.322V99.1035H185.195ZM183.33 97.1113V102.287H182.192V97.1113H183.33ZM190.815 95.8906V96.5352L187.974 103H186.733L189.57 96.8281H185.889V95.8906H190.815ZM194.36 100.192V100.109C194.36 99.4128 194.435 98.7812 194.585 98.2148C194.738 97.6452 194.937 97.1471 195.181 96.7207C195.425 96.291 195.685 95.9362 195.962 95.6562C196.242 95.373 196.51 95.1696 196.768 95.0459L197.002 95.7197C196.813 95.8597 196.624 96.0534 196.436 96.3008C196.25 96.5482 196.079 96.8525 195.923 97.2139C195.77 97.5719 195.646 97.9919 195.552 98.4736C195.461 98.9521 195.415 99.4941 195.415 100.1V100.202C195.415 100.808 195.461 101.351 195.552 101.833C195.646 102.312 195.77 102.731 195.923 103.093C196.079 103.454 196.25 103.76 196.436 104.011C196.624 104.265 196.813 104.466 197.002 104.616L196.768 105.261C196.51 105.134 196.242 104.929 195.962 104.646C195.685 104.366 195.425 104.011 195.181 103.581C194.937 103.155 194.738 102.658 194.585 102.092C194.435 101.522 194.36 100.889 194.36 100.192ZM198.853 95.8906L200.361 98.4834L201.87 95.8906H203.281L201.133 99.4111L203.335 103H201.909L200.361 100.358L198.813 103H197.383L199.59 99.4111L197.437 95.8906H198.853ZM205.171 95.8906L206.68 98.4834L208.188 95.8906H209.6L207.451 99.4111L209.653 103H208.228L206.68 100.358L205.132 103H203.701L205.908 99.4111L203.755 95.8906H205.171ZM211.489 95.8906L212.998 98.4834L214.507 95.8906H215.918L213.77 99.4111L215.972 103H214.546L212.998 100.358L211.45 103H210.02L212.227 99.4111L210.073 95.8906H211.489ZM219.028 100.109V100.192C219.028 100.879 218.95 101.506 218.794 102.072C218.641 102.639 218.441 103.137 218.193 103.566C217.949 103.996 217.684 104.354 217.397 104.641C217.114 104.927 216.842 105.134 216.582 105.261L216.343 104.616C216.532 104.473 216.719 104.276 216.904 104.025C217.093 103.778 217.264 103.47 217.417 103.103C217.573 102.738 217.697 102.315 217.788 101.833C217.882 101.351 217.93 100.808 217.93 100.202V100.1C217.93 99.4941 217.881 98.9505 217.783 98.4688C217.689 97.9837 217.562 97.5605 217.402 97.1992C217.243 96.8346 217.07 96.527 216.885 96.2764C216.699 96.0257 216.519 95.8304 216.343 95.6904L216.582 95.0459C216.842 95.1696 217.114 95.3747 217.397 95.6611C217.684 95.9476 217.949 96.3073 218.193 96.7402C218.441 97.1699 218.641 97.668 218.794 98.2344C218.95 98.8008 219.028 99.4258 219.028 100.109ZM223.794 95.8906L225.303 98.4834L226.812 95.8906H228.223L226.074 99.4111L228.276 103H226.851L225.303 100.358L223.755 103H222.324L224.531 99.4111L222.378 95.8906H223.794ZM230.112 95.8906L231.621 98.4834L233.13 95.8906H234.541L232.393 99.4111L234.595 103H233.169L231.621 100.358L230.073 103H228.643L230.85 99.4111L228.696 95.8906H230.112ZM236.431 95.8906L237.939 98.4834L239.448 95.8906H240.859L238.711 99.4111L240.913 103H239.487L237.939 100.358L236.392 103H234.961L237.168 99.4111L235.015 95.8906H236.431ZM243.647 99.4941V100.432H241.064V99.4941H243.647ZM245.728 95.8906L247.236 98.4834L248.745 95.8906H250.156L248.008 99.4111L250.21 103H248.784L247.236 100.358L245.688 103H244.258L246.465 99.4111L244.312 95.8906H245.728ZM252.046 95.8906L253.555 98.4834L255.063 95.8906H256.475L254.326 99.4111L256.528 103H255.103L253.555 100.358L252.007 103H250.576L252.783 99.4111L250.63 95.8906H252.046ZM259.263 99.4941V100.432H256.68V99.4941H259.263ZM264.858 98.8496V100.012C264.858 100.568 264.803 101.044 264.692 101.438C264.585 101.828 264.429 102.146 264.224 102.39C264.019 102.634 263.773 102.813 263.486 102.927C263.203 103.041 262.886 103.098 262.534 103.098C262.254 103.098 261.994 103.062 261.753 102.99C261.515 102.919 261.3 102.806 261.108 102.653C260.916 102.5 260.752 102.303 260.615 102.062C260.482 101.818 260.378 101.527 260.303 101.188C260.231 100.85 260.195 100.458 260.195 100.012V98.8496C260.195 98.2897 260.251 97.8177 260.361 97.4336C260.472 97.0462 260.63 96.7321 260.835 96.4912C261.04 96.2471 261.284 96.0697 261.567 95.959C261.854 95.8483 262.173 95.793 262.524 95.793C262.808 95.793 263.068 95.8288 263.306 95.9004C263.547 95.9688 263.761 96.0778 263.95 96.2275C264.142 96.3773 264.305 96.5726 264.438 96.8135C264.575 97.0511 264.679 97.3392 264.751 97.6777C264.823 98.013 264.858 98.4036 264.858 98.8496ZM263.682 100.178V98.6738C263.682 98.3906 263.665 98.1416 263.633 97.9268C263.6 97.7087 263.551 97.5247 263.486 97.375C263.424 97.222 263.346 97.0983 263.252 97.0039C263.158 96.9062 263.05 96.8363 262.93 96.7939C262.809 96.7484 262.674 96.7256 262.524 96.7256C262.342 96.7256 262.179 96.7614 262.036 96.833C261.893 96.9014 261.772 97.012 261.675 97.165C261.577 97.318 261.502 97.5199 261.45 97.7705C261.401 98.0179 261.377 98.319 261.377 98.6738V100.178C261.377 100.464 261.393 100.716 261.426 100.935C261.458 101.153 261.507 101.34 261.572 101.496C261.637 101.649 261.715 101.776 261.807 101.877C261.901 101.975 262.008 102.046 262.129 102.092C262.253 102.137 262.388 102.16 262.534 102.16C262.72 102.16 262.884 102.124 263.027 102.053C263.171 101.981 263.291 101.867 263.389 101.711C263.486 101.551 263.56 101.345 263.608 101.091C263.657 100.837 263.682 100.533 263.682 100.178ZM267.29 98.9131H267.993C268.267 98.9131 268.493 98.8659 268.672 98.7715C268.854 98.6771 268.989 98.5469 269.077 98.3809C269.165 98.2148 269.209 98.0244 269.209 97.8096C269.209 97.585 269.168 97.3929 269.087 97.2334C269.009 97.0706 268.888 96.9453 268.726 96.8574C268.566 96.7695 268.363 96.7256 268.115 96.7256C267.907 96.7256 267.718 96.7679 267.549 96.8525C267.383 96.9339 267.251 97.0511 267.153 97.2041C267.056 97.3538 267.007 97.5329 267.007 97.7412H265.825C265.825 97.3636 265.924 97.0283 266.123 96.7354C266.322 96.4424 266.592 96.2129 266.934 96.0469C267.279 95.8776 267.666 95.793 268.096 95.793C268.555 95.793 268.955 95.8695 269.297 96.0225C269.642 96.1722 269.91 96.3968 270.103 96.6963C270.295 96.9958 270.391 97.3669 270.391 97.8096C270.391 98.0114 270.343 98.2165 270.249 98.4248C270.155 98.6331 270.015 98.8236 269.829 98.9961C269.644 99.1654 269.412 99.3037 269.136 99.4111C268.859 99.5153 268.538 99.5674 268.174 99.5674H267.29V98.9131ZM267.29 99.8311V99.1865H268.174C268.59 99.1865 268.945 99.2354 269.238 99.333C269.535 99.4307 269.775 99.5658 269.961 99.7383C270.146 99.9076 270.282 100.101 270.366 100.319C270.454 100.537 270.498 100.769 270.498 101.013C270.498 101.345 270.438 101.641 270.317 101.901C270.2 102.159 270.033 102.377 269.814 102.556C269.596 102.735 269.341 102.87 269.048 102.961C268.758 103.052 268.442 103.098 268.101 103.098C267.795 103.098 267.502 103.055 267.222 102.971C266.942 102.886 266.691 102.761 266.47 102.595C266.248 102.425 266.073 102.215 265.942 101.965C265.815 101.711 265.752 101.418 265.752 101.086H266.929C266.929 101.298 266.978 101.485 267.075 101.647C267.176 101.807 267.316 101.932 267.495 102.023C267.677 102.115 267.886 102.16 268.12 102.16C268.368 102.16 268.581 102.116 268.76 102.028C268.939 101.94 269.076 101.81 269.17 101.638C269.268 101.465 269.316 101.257 269.316 101.013C269.316 100.736 269.263 100.511 269.155 100.339C269.048 100.166 268.895 100.039 268.696 99.958C268.498 99.8734 268.263 99.8311 267.993 99.8311H267.29Z" fill="white"/>
<rect x="172" y="122" width="108" height="24" rx="6.54406" fill="white" fill-opacity="0.15"/>
<path d="M185.195 133.104V134.163H180.322V133.104H185.195ZM183.33 131.111V136.287H182.192V131.111H183.33ZM190.815 129.891V130.535L187.974 137H186.733L189.57 130.828H185.889V129.891H190.815ZM194.36 134.192V134.109C194.36 133.413 194.435 132.781 194.585 132.215C194.738 131.645 194.937 131.147 195.181 130.721C195.425 130.291 195.685 129.936 195.962 129.656C196.242 129.373 196.51 129.17 196.768 129.046L197.002 129.72C196.813 129.86 196.624 130.053 196.436 130.301C196.25 130.548 196.079 130.853 195.923 131.214C195.77 131.572 195.646 131.992 195.552 132.474C195.461 132.952 195.415 133.494 195.415 134.1V134.202C195.415 134.808 195.461 135.351 195.552 135.833C195.646 136.312 195.77 136.731 195.923 137.093C196.079 137.454 196.25 137.76 196.436 138.011C196.624 138.265 196.813 138.466 197.002 138.616L196.768 139.261C196.51 139.134 196.242 138.929 195.962 138.646C195.685 138.366 195.425 138.011 195.181 137.581C194.937 137.155 194.738 136.658 194.585 136.092C194.435 135.522 194.36 134.889 194.36 134.192ZM198.853 129.891L200.361 132.483L201.87 129.891H203.281L201.133 133.411L203.335 137H201.909L200.361 134.358L198.813 137H197.383L199.59 133.411L197.437 129.891H198.853ZM205.171 129.891L206.68 132.483L208.188 129.891H209.6L207.451 133.411L209.653 137H208.228L206.68 134.358L205.132 137H203.701L205.908 133.411L203.755 129.891H205.171ZM211.489 129.891L212.998 132.483L214.507 129.891H215.918L213.77 133.411L215.972 137H214.546L212.998 134.358L211.45 137H210.02L212.227 133.411L210.073 129.891H211.489ZM219.028 134.109V134.192C219.028 134.879 218.95 135.506 218.794 136.072C218.641 136.639 218.441 137.137 218.193 137.566C217.949 137.996 217.684 138.354 217.397 138.641C217.114 138.927 216.842 139.134 216.582 139.261L216.343 138.616C216.532 138.473 216.719 138.276 216.904 138.025C217.093 137.778 217.264 137.47 217.417 137.103C217.573 136.738 217.697 136.315 217.788 135.833C217.882 135.351 217.93 134.808 217.93 134.202V134.1C217.93 133.494 217.881 132.951 217.783 132.469C217.689 131.984 217.562 131.561 217.402 131.199C217.243 130.835 217.07 130.527 216.885 130.276C216.699 130.026 216.519 129.83 216.343 129.69L216.582 129.046C216.842 129.17 217.114 129.375 217.397 129.661C217.684 129.948 217.949 130.307 218.193 130.74C218.441 131.17 218.641 131.668 218.794 132.234C218.95 132.801 219.028 133.426 219.028 134.109ZM223.794 129.891L225.303 132.483L226.812 129.891H228.223L226.074 133.411L228.276 137H226.851L225.303 134.358L223.755 137H222.324L224.531 133.411L222.378 129.891H223.794ZM230.112 129.891L231.621 132.483L233.13 129.891H234.541L232.393 133.411L234.595 137H233.169L231.621 134.358L230.073 137H228.643L230.85 133.411L228.696 129.891H230.112ZM236.431 129.891L237.939 132.483L239.448 129.891H240.859L238.711 133.411L240.913 137H239.487L237.939 134.358L236.392 137H234.961L237.168 133.411L235.015 129.891H236.431ZM243.647 133.494V134.432H241.064V133.494H243.647ZM245.728 129.891L247.236 132.483L248.745 129.891H250.156L248.008 133.411L250.21 137H248.784L247.236 134.358L245.688 137H244.258L246.465 133.411L244.312 129.891H245.728ZM252.046 129.891L253.555 132.483L255.063 129.891H256.475L254.326 133.411L256.528 137H255.103L253.555 134.358L252.007 137H250.576L252.783 133.411L250.63 129.891H252.046ZM259.263 133.494V134.432H256.68V133.494H259.263ZM264.858 132.85V134.012C264.858 134.568 264.803 135.044 264.692 135.438C264.585 135.828 264.429 136.146 264.224 136.39C264.019 136.634 263.773 136.813 263.486 136.927C263.203 137.041 262.886 137.098 262.534 137.098C262.254 137.098 261.994 137.062 261.753 136.99C261.515 136.919 261.3 136.806 261.108 136.653C260.916 136.5 260.752 136.303 260.615 136.062C260.482 135.818 260.378 135.527 260.303 135.188C260.231 134.85 260.195 134.458 260.195 134.012V132.85C260.195 132.29 260.251 131.818 260.361 131.434C260.472 131.046 260.63 130.732 260.835 130.491C261.04 130.247 261.284 130.07 261.567 129.959C261.854 129.848 262.173 129.793 262.524 129.793C262.808 129.793 263.068 129.829 263.306 129.9C263.547 129.969 263.761 130.078 263.95 130.228C264.142 130.377 264.305 130.573 264.438 130.813C264.575 131.051 264.679 131.339 264.751 131.678C264.823 132.013 264.858 132.404 264.858 132.85ZM263.682 134.178V132.674C263.682 132.391 263.665 132.142 263.633 131.927C263.6 131.709 263.551 131.525 263.486 131.375C263.424 131.222 263.346 131.098 263.252 131.004C263.158 130.906 263.05 130.836 262.93 130.794C262.809 130.748 262.674 130.726 262.524 130.726C262.342 130.726 262.179 130.761 262.036 130.833C261.893 130.901 261.772 131.012 261.675 131.165C261.577 131.318 261.502 131.52 261.45 131.771C261.401 132.018 261.377 132.319 261.377 132.674V134.178C261.377 134.464 261.393 134.716 261.426 134.935C261.458 135.153 261.507 135.34 261.572 135.496C261.637 135.649 261.715 135.776 261.807 135.877C261.901 135.975 262.008 136.046 262.129 136.092C262.253 136.137 262.388 136.16 262.534 136.16C262.72 136.16 262.884 136.124 263.027 136.053C263.171 135.981 263.291 135.867 263.389 135.711C263.486 135.551 263.56 135.345 263.608 135.091C263.657 134.837 263.682 134.533 263.682 134.178ZM270.806 134.466V135.403H265.679L265.64 134.695L268.706 129.891H269.648L268.628 131.639L266.865 134.466H270.806ZM269.917 129.891V137H268.74V129.891H269.917Z" fill="white"/>
<rect x="172" y="156" width="108" height="24" rx="6.54406" fill="white" fill-opacity="0.15"/>
<path d="M185.195 167.104V168.163H180.322V167.104H185.195ZM183.33 165.111V170.287H182.192V165.111H183.33ZM190.815 163.891V164.535L187.974 171H186.733L189.57 164.828H185.889V163.891H190.815ZM194.36 168.192V168.109C194.36 167.413 194.435 166.781 194.585 166.215C194.738 165.645 194.937 165.147 195.181 164.721C195.425 164.291 195.685 163.936 195.962 163.656C196.242 163.373 196.51 163.17 196.768 163.046L197.002 163.72C196.813 163.86 196.624 164.053 196.436 164.301C196.25 164.548 196.079 164.853 195.923 165.214C195.77 165.572 195.646 165.992 195.552 166.474C195.461 166.952 195.415 167.494 195.415 168.1V168.202C195.415 168.808 195.461 169.351 195.552 169.833C195.646 170.312 195.77 170.731 195.923 171.093C196.079 171.454 196.25 171.76 196.436 172.011C196.624 172.265 196.813 172.466 197.002 172.616L196.768 173.261C196.51 173.134 196.242 172.929 195.962 172.646C195.685 172.366 195.425 172.011 195.181 171.581C194.937 171.155 194.738 170.658 194.585 170.092C194.435 169.522 194.36 168.889 194.36 168.192ZM198.853 163.891L200.361 166.483L201.87 163.891H203.281L201.133 167.411L203.335 171H201.909L200.361 168.358L198.813 171H197.383L199.59 167.411L197.437 163.891H198.853ZM205.171 163.891L206.68 166.483L208.188 163.891H209.6L207.451 167.411L209.653 171H208.228L206.68 168.358L205.132 171H203.701L205.908 167.411L203.755 163.891H205.171ZM211.489 163.891L212.998 166.483L214.507 163.891H215.918L213.77 167.411L215.972 171H214.546L212.998 168.358L211.45 171H210.02L212.227 167.411L210.073 163.891H211.489ZM219.028 168.109V168.192C219.028 168.879 218.95 169.506 218.794 170.072C218.641 170.639 218.441 171.137 218.193 171.566C217.949 171.996 217.684 172.354 217.397 172.641C217.114 172.927 216.842 173.134 216.582 173.261L216.343 172.616C216.532 172.473 216.719 172.276 216.904 172.025C217.093 171.778 217.264 171.47 217.417 171.103C217.573 170.738 217.697 170.315 217.788 169.833C217.882 169.351 217.93 168.808 217.93 168.202V168.1C217.93 167.494 217.881 166.951 217.783 166.469C217.689 165.984 217.562 165.561 217.402 165.199C217.243 164.835 217.07 164.527 216.885 164.276C216.699 164.026 216.519 163.83 216.343 163.69L216.582 163.046C216.842 163.17 217.114 163.375 217.397 163.661C217.684 163.948 217.949 164.307 218.193 164.74C218.441 165.17 218.641 165.668 218.794 166.234C218.95 166.801 219.028 167.426 219.028 168.109ZM223.794 163.891L225.303 166.483L226.812 163.891H228.223L226.074 167.411L228.276 171H226.851L225.303 168.358L223.755 171H222.324L224.531 167.411L222.378 163.891H223.794ZM230.112 163.891L231.621 166.483L233.13 163.891H234.541L232.393 167.411L234.595 171H233.169L231.621 168.358L230.073 171H228.643L230.85 167.411L228.696 163.891H230.112ZM236.431 163.891L237.939 166.483L239.448 163.891H240.859L238.711 167.411L240.913 171H239.487L237.939 168.358L236.392 171H234.961L237.168 167.411L235.015 163.891H236.431ZM243.647 167.494V168.432H241.064V167.494H243.647ZM245.728 163.891L247.236 166.483L248.745 163.891H250.156L248.008 167.411L250.21 171H248.784L247.236 168.358L245.688 171H244.258L246.465 167.411L244.312 163.891H245.728ZM252.046 163.891L253.555 166.483L255.063 163.891H256.475L254.326 167.411L256.528 171H255.103L253.555 168.358L252.007 171H250.576L252.783 167.411L250.63 163.891H252.046ZM259.263 167.494V168.432H256.68V167.494H259.263ZM264.858 166.85V168.012C264.858 168.568 264.803 169.044 264.692 169.438C264.585 169.828 264.429 170.146 264.224 170.39C264.019 170.634 263.773 170.813 263.486 170.927C263.203 171.041 262.886 171.098 262.534 171.098C262.254 171.098 261.994 171.062 261.753 170.99C261.515 170.919 261.3 170.806 261.108 170.653C260.916 170.5 260.752 170.303 260.615 170.062C260.482 169.818 260.378 169.527 260.303 169.188C260.231 168.85 260.195 168.458 260.195 168.012V166.85C260.195 166.29 260.251 165.818 260.361 165.434C260.472 165.046 260.63 164.732 260.835 164.491C261.04 164.247 261.284 164.07 261.567 163.959C261.854 163.848 262.173 163.793 262.524 163.793C262.808 163.793 263.068 163.829 263.306 163.9C263.547 163.969 263.761 164.078 263.95 164.228C264.142 164.377 264.305 164.573 264.438 164.813C264.575 165.051 264.679 165.339 264.751 165.678C264.823 166.013 264.858 166.404 264.858 166.85ZM263.682 168.178V166.674C263.682 166.391 263.665 166.142 263.633 165.927C263.6 165.709 263.551 165.525 263.486 165.375C263.424 165.222 263.346 165.098 263.252 165.004C263.158 164.906 263.05 164.836 262.93 164.794C262.809 164.748 262.674 164.726 262.524 164.726C262.342 164.726 262.179 164.761 262.036 164.833C261.893 164.901 261.772 165.012 261.675 165.165C261.577 165.318 261.502 165.52 261.45 165.771C261.401 166.018 261.377 166.319 261.377 166.674V168.178C261.377 168.464 261.393 168.716 261.426 168.935C261.458 169.153 261.507 169.34 261.572 169.496C261.637 169.649 261.715 169.776 261.807 169.877C261.901 169.975 262.008 170.046 262.129 170.092C262.253 170.137 262.388 170.16 262.534 170.16C262.72 170.16 262.884 170.124 263.027 170.053C263.171 169.981 263.291 169.867 263.389 169.711C263.486 169.551 263.56 169.345 263.608 169.091C263.657 168.837 263.682 168.533 263.682 168.178ZM267.144 167.694L266.206 167.465L266.592 163.891H270.425V164.887H267.568L267.373 166.63C267.484 166.565 267.637 166.501 267.832 166.439C268.027 166.374 268.25 166.342 268.501 166.342C268.836 166.342 269.136 166.397 269.399 166.508C269.666 166.615 269.893 166.773 270.078 166.981C270.264 167.187 270.405 167.437 270.503 167.733C270.601 168.026 270.649 168.357 270.649 168.725C270.649 169.053 270.601 169.361 270.503 169.647C270.409 169.934 270.265 170.186 270.073 170.404C269.881 170.622 269.639 170.793 269.346 170.917C269.056 171.037 268.713 171.098 268.315 171.098C268.019 171.098 267.734 171.055 267.461 170.971C267.191 170.883 266.948 170.754 266.733 170.585C266.519 170.412 266.346 170.201 266.216 169.95C266.086 169.696 266.011 169.405 265.991 169.076H267.144C267.173 169.307 267.236 169.504 267.334 169.667C267.435 169.826 267.568 169.949 267.734 170.033C267.9 170.118 268.092 170.16 268.311 170.16C268.509 170.16 268.68 170.126 268.823 170.058C268.966 169.986 269.085 169.885 269.18 169.755C269.277 169.621 269.349 169.465 269.395 169.286C269.443 169.107 269.468 168.909 269.468 168.69C269.468 168.482 269.44 168.292 269.385 168.119C269.333 167.947 269.253 167.797 269.146 167.67C269.041 167.543 268.91 167.445 268.75 167.377C268.59 167.305 268.407 167.27 268.198 167.27C267.918 167.27 267.703 167.31 267.554 167.392C267.407 167.473 267.271 167.574 267.144 167.694Z" fill="white"/>
<path d="M115 31.5C114.724 31.5 114.5 31.7239 114.5 32C114.5 32.2761 114.724 32.5 115 32.5V31.5ZM169.354 32.3536C169.549 32.1583 169.549 31.8417 169.354 31.6464L166.172 28.4645C165.976 28.2692 165.66 28.2692 165.464 28.4645C165.269 28.6597 165.269 28.9763 165.464 29.1716L168.293 32L165.464 34.8284C165.269 35.0237 165.269 35.3403 165.464 35.5355C165.66 35.7308 165.976 35.7308 166.172 35.5355L169.354 32.3536ZM115 32V32.5H169V32V31.5H115V32Z" fill="white"/>
<path d="M115 65.5C114.724 65.5 114.5 65.7239 114.5 66C114.5 66.2761 114.724 66.5 115 66.5V65.5ZM169.354 66.3536C169.549 66.1583 169.549 65.8417 169.354 65.6464L166.172 62.4645C165.976 62.2692 165.66 62.2692 165.464 62.4645C165.269 62.6597 165.269 62.9763 165.464 63.1716L168.293 66L165.464 68.8284C165.269 69.0237 165.269 69.3403 165.464 69.5355C165.66 69.7308 165.976 69.7308 166.172 69.5355L169.354 66.3536ZM115 66V66.5H169V66V65.5H115V66Z" fill="white"/>
<path d="M115 99.5C114.724 99.5 114.5 99.7239 114.5 100C114.5 100.276 114.724 100.5 115 100.5V99.5ZM169.354 100.354C169.549 100.158 169.549 99.8417 169.354 99.6464L166.172 96.4645C165.976 96.2692 165.66 96.2692 165.464 96.4645C165.269 96.6597 165.269 96.9763 165.464 97.1716L168.293 100L165.464 102.828C165.269 103.024 165.269 103.34 165.464 103.536C165.66 103.731 165.976 103.731 166.172 103.536L169.354 100.354ZM115 100V100.5H169V100V99.5H115V100Z" fill="white"/>
<path d="M115 133.5C114.724 133.5 114.5 133.724 114.5 134C114.5 134.276 114.724 134.5 115 134.5V133.5ZM169.354 134.354C169.549 134.158 169.549 133.842 169.354 133.646L166.172 130.464C165.976 130.269 165.66 130.269 165.464 130.464C165.269 130.66 165.269 130.976 165.464 131.172L168.293 134L165.464 136.828C165.269 137.024 165.269 137.34 165.464 137.536C165.66 137.731 165.976 137.731 166.172 137.536L169.354 134.354ZM115 134V134.5H169V134V133.5H115V134Z" fill="white"/>
<path d="M115 167.5C114.724 167.5 114.5 167.724 114.5 168C114.5 168.276 114.724 168.5 115 168.5V167.5ZM169.354 168.354C169.549 168.158 169.549 167.842 169.354 167.646L166.172 164.464C165.976 164.269 165.66 164.269 165.464 164.464C165.269 164.66 165.269 164.976 165.464 165.172L168.293 168L165.464 170.828C165.269 171.024 165.269 171.34 165.464 171.536C165.66 171.731 165.976 171.731 166.172 171.536L169.354 168.354ZM115 168V168.5H169V168V167.5H115V168Z" fill="white"/>
<rect x="340" y="88" width="108" height="24" rx="6.54406" fill="white"/>
<path d="M353.195 99.1035V100.163H348.322V99.1035H353.195ZM351.33 97.1113V102.287H350.192V97.1113H351.33ZM358.815 95.8906V96.5352L355.974 103H354.733L357.57 96.8281H353.889V95.8906H358.815ZM362.36 100.192V100.109C362.36 99.4128 362.435 98.7812 362.585 98.2148C362.738 97.6452 362.937 97.1471 363.181 96.7207C363.425 96.291 363.685 95.9362 363.962 95.6562C364.242 95.373 364.51 95.1696 364.768 95.0459L365.002 95.7197C364.813 95.8597 364.624 96.0534 364.436 96.3008C364.25 96.5482 364.079 96.8525 363.923 97.2139C363.77 97.5719 363.646 97.9919 363.552 98.4736C363.461 98.9521 363.415 99.4941 363.415 100.1V100.202C363.415 100.808 363.461 101.351 363.552 101.833C363.646 102.312 363.77 102.731 363.923 103.093C364.079 103.454 364.25 103.76 364.436 104.011C364.624 104.265 364.813 104.466 365.002 104.616L364.768 105.261C364.51 105.134 364.242 104.929 363.962 104.646C363.685 104.366 363.425 104.011 363.181 103.581C362.937 103.155 362.738 102.658 362.585 102.092C362.435 101.522 362.36 100.889 362.36 100.192ZM366.853 95.8906L368.361 98.4834L369.87 95.8906H371.281L369.133 99.4111L371.335 103H369.909L368.361 100.358L366.813 103H365.383L367.59 99.4111L365.437 95.8906H366.853ZM373.171 95.8906L374.68 98.4834L376.188 95.8906H377.6L375.451 99.4111L377.653 103H376.228L374.68 100.358L373.132 103H371.701L373.908 99.4111L371.755 95.8906H373.171ZM379.489 95.8906L380.998 98.4834L382.507 95.8906H383.918L381.77 99.4111L383.972 103H382.546L380.998 100.358L379.45 103H378.02L380.227 99.4111L378.073 95.8906H379.489ZM387.028 100.109V100.192C387.028 100.879 386.95 101.506 386.794 102.072C386.641 102.639 386.441 103.137 386.193 103.566C385.949 103.996 385.684 104.354 385.397 104.641C385.114 104.927 384.842 105.134 384.582 105.261L384.343 104.616C384.532 104.473 384.719 104.276 384.904 104.025C385.093 103.778 385.264 103.47 385.417 103.103C385.573 102.738 385.697 102.315 385.788 101.833C385.882 101.351 385.93 100.808 385.93 100.202V100.1C385.93 99.4941 385.881 98.9505 385.783 98.4688C385.689 97.9837 385.562 97.5605 385.402 97.1992C385.243 96.8346 385.07 96.527 384.885 96.2764C384.699 96.0257 384.519 95.8304 384.343 95.6904L384.582 95.0459C384.842 95.1696 385.114 95.3747 385.397 95.6611C385.684 95.9476 385.949 96.3073 386.193 96.7402C386.441 97.1699 386.641 97.668 386.794 98.2344C386.95 98.8008 387.028 99.4258 387.028 100.109ZM391.794 95.8906L393.303 98.4834L394.812 95.8906H396.223L394.074 99.4111L396.276 103H394.851L393.303 100.358L391.755 103H390.324L392.531 99.4111L390.378 95.8906H391.794ZM398.112 95.8906L399.621 98.4834L401.13 95.8906H402.541L400.393 99.4111L402.595 103H401.169L399.621 100.358L398.073 103H396.643L398.85 99.4111L396.696 95.8906H398.112ZM404.431 95.8906L405.939 98.4834L407.448 95.8906H408.859L406.711 99.4111L408.913 103H407.487L405.939 100.358L404.392 103H402.961L405.168 99.4111L403.015 95.8906H404.431ZM411.647 99.4941V100.432H409.064V99.4941H411.647ZM413.728 95.8906L415.236 98.4834L416.745 95.8906H418.156L416.008 99.4111L418.21 103H416.784L415.236 100.358L413.688 103H412.258L414.465 99.4111L412.312 95.8906H413.728ZM420.046 95.8906L421.555 98.4834L423.063 95.8906H424.475L422.326 99.4111L424.528 103H423.103L421.555 100.358L420.007 103H418.576L420.783 99.4111L418.63 95.8906H420.046ZM427.263 99.4941V100.432H424.68V99.4941H427.263ZM432.858 98.8496V100.012C432.858 100.568 432.803 101.044 432.692 101.438C432.585 101.828 432.429 102.146 432.224 102.39C432.019 102.634 431.773 102.813 431.486 102.927C431.203 103.041 430.886 103.098 430.534 103.098C430.254 103.098 429.994 103.062 429.753 102.99C429.515 102.919 429.3 102.806 429.108 102.653C428.916 102.5 428.752 102.303 428.615 102.062C428.482 101.818 428.378 101.527 428.303 101.188C428.231 100.85 428.195 100.458 428.195 100.012V98.8496C428.195 98.2897 428.251 97.8177 428.361 97.4336C428.472 97.0462 428.63 96.7321 428.835 96.4912C429.04 96.2471 429.284 96.0697 429.567 95.959C429.854 95.8483 430.173 95.793 430.524 95.793C430.808 95.793 431.068 95.8288 431.306 95.9004C431.547 95.9688 431.761 96.0778 431.95 96.2275C432.142 96.3773 432.305 96.5726 432.438 96.8135C432.575 97.0511 432.679 97.3392 432.751 97.6777C432.823 98.013 432.858 98.4036 432.858 98.8496ZM431.682 100.178V98.6738C431.682 98.3906 431.665 98.1416 431.633 97.9268C431.6 97.7087 431.551 97.5247 431.486 97.375C431.424 97.222 431.346 97.0983 431.252 97.0039C431.158 96.9062 431.05 96.8363 430.93 96.7939C430.809 96.7484 430.674 96.7256 430.524 96.7256C430.342 96.7256 430.179 96.7614 430.036 96.833C429.893 96.9014 429.772 97.012 429.675 97.165C429.577 97.318 429.502 97.5199 429.45 97.7705C429.401 98.0179 429.377 98.319 429.377 98.6738V100.178C429.377 100.464 429.393 100.716 429.426 100.935C429.458 101.153 429.507 101.34 429.572 101.496C429.637 101.649 429.715 101.776 429.807 101.877C429.901 101.975 430.008 102.046 430.129 102.092C430.253 102.137 430.388 102.16 430.534 102.16C430.72 102.16 430.884 102.124 431.027 102.053C431.171 101.981 431.291 101.867 431.389 101.711C431.486 101.551 431.56 101.345 431.608 101.091C431.657 100.837 431.682 100.533 431.682 100.178ZM438.542 98.8496V100.012C438.542 100.568 438.487 101.044 438.376 101.438C438.269 101.828 438.112 102.146 437.907 102.39C437.702 102.634 437.456 102.813 437.17 102.927C436.887 103.041 436.569 103.098 436.218 103.098C435.938 103.098 435.677 103.062 435.437 102.99C435.199 102.919 434.984 102.806 434.792 102.653C434.6 102.5 434.436 102.303 434.299 102.062C434.165 101.818 434.061 101.527 433.986 101.188C433.915 100.85 433.879 100.458 433.879 100.012V98.8496C433.879 98.2897 433.934 97.8177 434.045 97.4336C434.156 97.0462 434.313 96.7321 434.519 96.4912C434.724 96.2471 434.968 96.0697 435.251 95.959C435.537 95.8483 435.856 95.793 436.208 95.793C436.491 95.793 436.752 95.8288 436.989 95.9004C437.23 95.9688 437.445 96.0778 437.634 96.2275C437.826 96.3773 437.989 96.5726 438.122 96.8135C438.259 97.0511 438.363 97.3392 438.435 97.6777C438.506 98.013 438.542 98.4036 438.542 98.8496ZM437.365 100.178V98.6738C437.365 98.3906 437.349 98.1416 437.316 97.9268C437.284 97.7087 437.235 97.5247 437.17 97.375C437.108 97.222 437.03 97.0983 436.936 97.0039C436.841 96.9062 436.734 96.8363 436.613 96.7939C436.493 96.7484 436.358 96.7256 436.208 96.7256C436.026 96.7256 435.863 96.7614 435.72 96.833C435.576 96.9014 435.456 97.012 435.358 97.165C435.261 97.318 435.186 97.5199 435.134 97.7705C435.085 98.0179 435.061 98.319 435.061 98.6738V100.178C435.061 100.464 435.077 100.716 435.109 100.935C435.142 101.153 435.191 101.34 435.256 101.496C435.321 101.649 435.399 101.776 435.49 101.877C435.585 101.975 435.692 102.046 435.812 102.092C435.936 102.137 436.071 102.16 436.218 102.16C436.403 102.16 436.568 102.124 436.711 102.053C436.854 101.981 436.975 101.867 437.072 101.711C437.17 101.551 437.243 101.345 437.292 101.091C437.341 100.837 437.365 100.533 437.365 100.178Z" fill="black"/>
<path d="M283 167.5C282.724 167.5 282.5 167.724 282.5 168C282.5 168.276 282.724 168.5 283 168.5V167.5ZM337.354 100.354C337.549 100.158 337.549 99.8417 337.354 99.6464L334.172 96.4645C333.976 96.2692 333.66 96.2692 333.464 96.4645C333.269 96.6597 333.269 96.9763 333.464 97.1716L336.293 100L333.464 102.828C333.269 103.024 333.269 103.34 333.464 103.536C333.66 103.731 333.976 103.731 334.172 103.536L337.354 100.354ZM283 168V168.5H289V168V167.5H283V168ZM313 144H313.5V124H313H312.5V144H313ZM313 124H313.5C313.5 111.021 324.021 100.5 337 100.5V100V99.5C323.469 99.5 312.5 110.469 312.5 124H313ZM289 168V168.5C302.531 168.5 313.5 157.531 313.5 144H313H312.5C312.5 156.979 301.979 167.5 289 167.5V168Z" fill="white"/>
<path d="M283 133.5C282.724 133.5 282.5 133.724 282.5 134C282.5 134.276 282.724 134.5 283 134.5V133.5ZM337.354 100.354C337.549 100.158 337.549 99.8417 337.354 99.6464L334.172 96.4645C333.976 96.2692 333.66 96.2692 333.464 96.4645C333.269 96.6597 333.269 96.9763 333.464 97.1716L336.293 100L333.464 102.828C333.269 103.024 333.269 103.34 333.464 103.536C333.66 103.731 333.976 103.731 334.172 103.536L337.354 100.354ZM288 129H288.5V117H288H287.5V129H288ZM305 100V100.5H337V100V99.5H305V100ZM288 117H288.5C288.5 107.887 295.887 100.5 305 100.5V100V99.5C295.335 99.5 287.5 107.335 287.5 117H288ZM283 134V134.5C286.038 134.5 288.5 132.038 288.5 129H288H287.5C287.5 131.485 285.485 133.5 283 133.5V134Z" fill="white"/>
<path d="M283 99.5C282.724 99.5 282.5 99.7239 282.5 100C282.5 100.276 282.724 100.5 283 100.5V99.5ZM337.354 100.354C337.549 100.158 337.549 99.8417 337.354 99.6464L334.172 96.4645C333.976 96.2692 333.66 96.2692 333.464 96.4645C333.269 96.6597 333.269 96.9763 333.464 97.1716L336.293 100L333.464 102.828C333.269 103.024 333.269 103.34 333.464 103.536C333.66 103.731 333.976 103.731 334.172 103.536L337.354 100.354ZM283 100V100.5H337V100V99.5H283V100Z" fill="white"/>
<path d="M283 65.5C282.724 65.5 282.5 65.7239 282.5 66C282.5 66.2761 282.724 66.5 283 66.5V65.5ZM337.354 100.354C337.549 100.158 337.549 99.8417 337.354 99.6464L334.172 96.4645C333.976 96.2692 333.66 96.2692 333.464 96.4645C333.269 96.6597 333.269 96.9763 333.464 97.1716L336.293 100L333.464 102.828C333.269 103.024 333.269 103.34 333.464 103.536C333.66 103.731 333.976 103.731 334.172 103.536L337.354 100.354ZM289 72H288.5V83H289H289.5V72H289ZM306 100V100.5H337V100V99.5H306V100ZM289 83H288.5C288.5 92.665 296.335 100.5 306 100.5V100V99.5C296.887 99.5 289.5 92.1127 289.5 83H289ZM283 66V66.5C286.038 66.5 288.5 68.9624 288.5 72H289H289.5C289.5 68.4101 286.59 65.5 283 65.5V66Z" fill="white"/>
<path d="M283 31.5C282.724 31.5 282.5 31.7239 282.5 32C282.5 32.2761 282.724 32.5 283 32.5V31.5ZM337.354 100.354C337.549 100.158 337.549 99.8417 337.354 99.6464L334.172 96.4645C333.976 96.2692 333.66 96.2692 333.464 96.4645C333.269 96.6597 333.269 96.9763 333.464 97.1716L336.293 100L333.464 102.828C333.269 103.024 333.269 103.34 333.464 103.536C333.66 103.731 333.976 103.731 334.172 103.536L337.354 100.354ZM283 32V32.5H289V32V31.5H283V32ZM313 56H312.5V76H313H313.5V56H313ZM313 76H312.5C312.5 89.531 323.469 100.5 337 100.5V100V99.5C324.021 99.5 313.5 88.9787 313.5 76H313ZM289 32V32.5C301.979 32.5 312.5 43.0213 312.5 56H313H313.5C313.5 42.469 302.531 31.5 289 31.5V32Z" fill="white"/>
</g>
<defs>
<filter id="filter0_f_320_2242" x="30.8125" y="80.3408" width="280.434" height="269.457" filterUnits="userSpaceOnUse" color-interpolation-filters="sRGB">
<feFlood flood-opacity="0" result="BackgroundImageFix"/>
<feBlend mode="normal" in="SourceGraphic" in2="BackgroundImageFix" result="shape"/>
<feGaussianBlur stdDeviation="27" result="effect1_foregroundBlur_320_2242"/>
</filter>
<filter id="filter1_f_320_2242" x="-120" y="-96" width="369" height="287" filterUnits="userSpaceOnUse" color-interpolation-filters="sRGB">
<feFlood flood-opacity="0" result="BackgroundImageFix"/>
<feBlend mode="normal" in="SourceGraphic" in2="BackgroundImageFix" result="shape"/>
<feGaussianBlur stdDeviation="27" result="effect1_foregroundBlur_320_2242"/>
</filter>
<linearGradient id="paint0_linear_320_2242" x1="161.714" y1="-76.5" x2="435.515" y2="186.09" gradientUnits="userSpaceOnUse">
<stop stop-color="#5278FF"/>
<stop offset="1" stop-color="#00CA8D"/>
</linearGradient>
<radialGradient id="paint1_radial_320_2242" cx="0" cy="0" r="1" gradientUnits="userSpaceOnUse" gradientTransform="translate(156.561 227.469) rotate(90) scale(101 290.95)">
<stop stop-color="#853BFF"/>
<stop offset="1" stop-color="#853BFF" stop-opacity="0"/>
</radialGradient>
<radialGradient id="paint2_radial_320_2242" cx="0" cy="0" r="1" gradientUnits="userSpaceOnUse" gradientTransform="translate(410.116 230.673) rotate(90) scale(137.599 228.551)">
<stop stop-color="#F4BF00"/>
<stop offset="1" stop-color="#F4BF00" stop-opacity="0"/>
</radialGradient>
<radialGradient id="paint3_radial_320_2242" cx="0" cy="0" r="1" gradientUnits="userSpaceOnUse" gradientTransform="translate(407.017 39.4467) rotate(90) scale(139.677 228.551)">
<stop stop-color="#9600F4"/>
<stop offset="1" stop-color="#9600F4" stop-opacity="0"/>
</radialGradient>
<clipPath id="clip0_320_2242">
<rect width="480" height="200" fill="white"/>
</clipPath>
</defs>
</svg>
